<?xml version="1.0" encoding="utf-8"?>
<!-- Generator: Adobe Illustrator 25.4.1, SVG Export Plug-In . SVG Version: 6.00 Build 0)  -->
<svg version="1.1" baseProfile="basic" id="Layer_1"
	 xmlns="http://www.w3.org/2000/svg" xmlns:xlink="http://www.w3.org/1999/xlink" x="0px" y="0px" viewBox="0 0 96 96"
	 xml:space="preserve">
<g id="Layer_2_00000152960934185704635430000015857346833029846914_">
	<circle fill="#FFFFFF" cx="48" cy="48" r="48"/>
	<g>
		<g>
			<g>
				<path fill="#FFFFFF" d="M42.3,80.78c-0.97,0-1.92-0.17-2.81-0.54c-1.84-0.75-2.88-2.16-3.44-3.28
					c-3.67,1.06-7.09-0.23-8.43-2.26c-0.91-1.38-0.82-2.87-0.54-3.96c-1.28-0.62-2.4-1.44-3.3-2.4c-0.52-0.56-1.3-1.4-1.67-2.63
					c-0.67-2.24,0.43-4.27,1.48-5.59c-0.88-0.95-1.81-2.45-1.68-4.46c0.05-0.69,0.22-1.36,0.51-2h-0.21c-1.15,0-2.14-0.76-2.65-1.95
					h-1.22c-1.64,0-2.97-1.33-2.97-2.97V47.8c0-2.26,1.75-4.11,3.96-4.29v-6c0-2.86,2.03-5.29,4.81-5.85
					c3.24-5.9,8.65-10.46,14.98-12.66v-0.03l1.3-0.38c0.49-0.14,0.97-0.27,1.45-0.38v-0.28c0-1.49,1.22-2.71,2.71-2.71h6.83
					c1.49,0,2.71,1.22,2.71,2.71v0.28c0.48,0.11,0.96,0.24,1.43,0.37L56.88,19c6.33,2.19,11.74,6.75,14.99,12.65
					c2.77,0.56,4.81,2.99,4.81,5.85v6c2.21,0.18,3.96,2.03,3.96,4.29v0.95c0,1.64-1.33,2.97-2.97,2.97h-1.22
					c-0.31,0.72-0.8,1.29-1.39,1.62c0.39,0.73,0.62,1.52,0.68,2.33c0.13,2-0.8,3.5-1.68,4.46c1.05,1.32,2.15,3.35,1.48,5.59
					c-0.37,1.23-1.15,2.07-1.67,2.63c-0.9,0.96-2.02,1.78-3.3,2.4c0.28,1.09,0.36,2.58-0.54,3.96c-1.33,2.03-4.75,3.32-8.43,2.26
					c-0.56,1.13-1.59,2.53-3.44,3.28c-0.87,0.35-1.81,0.53-2.79,0.53c-2.36,0-4.77-1.05-6.54-2.79
					C47.02,79.78,44.61,80.78,42.3,80.78z M48.82,74.91l0.78,0.98c1.42,1.79,3.63,2.9,5.76,2.9c0.73,0,1.42-0.13,2.04-0.39
					c1.67-0.69,2.41-2.18,2.7-3.01l0.34-0.97l0.96,0.38c3.03,1.19,5.98,0.31,6.96-1.19c0.7-1.07,0.34-2.36,0.06-3.04l-0.38-0.93
					l0.93-0.37c1.36-0.54,2.55-1.33,3.44-2.28c0.44-0.47,0.98-1.06,1.22-1.85c0.55-1.83-0.98-3.69-1.67-4.4l-0.73-0.77l0.82-0.68
					c0.69-0.57,1.82-1.79,1.71-3.5c-0.06-0.88-0.44-1.72-1.11-2.45l-1.52-1.66h2.67c0.42,0,0.82-0.48,0.97-1.17l0.17-0.78h2.74
					c0.55,0,0.99-0.44,0.99-0.99V47.8c0-1.28-1.04-2.33-2.33-2.33H74.7V37.5c0-2.03-1.54-3.74-3.58-3.97l-0.52-0.06l-0.24-0.46
					c-3.09-5.86-8.47-10.36-14.76-12.35l-0.58-0.17c-0.51-0.15-1.02-0.28-1.54-0.39l0.09-0.99l-0.21,0.97l-1.2-0.24v-1.89
					c0-0.4-0.33-0.73-0.73-0.73H44.6c-0.4,0-0.73,0.33-0.73,0.73v1.89l-1.11,0.22l-0.37-0.93l0.23,0.96
					c-0.59,0.13-1.1,0.26-1.61,0.41l-0.59,0.17c-6.29,1.99-11.67,6.49-14.76,12.35l-0.24,0.46l-0.52,0.06
					c-2.04,0.23-3.58,1.93-3.58,3.97v7.97h-1.64c-1.28,0-2.33,1.04-2.33,2.33v0.95c0,0.55,0.44,0.99,0.99,0.99h2.74l0.17,0.78
					c0.15,0.69,0.55,1.17,0.97,1.17h4.31l-1.52,1.66c-0.67,0.73-1.05,1.57-1.11,2.45c-0.11,1.72,1.02,2.93,1.71,3.5l0.82,0.68
					l-0.73,0.77c-0.68,0.71-2.21,2.57-1.67,4.4c0.24,0.79,0.78,1.38,1.22,1.85c0.89,0.96,2.08,1.75,3.44,2.28l0.93,0.37l-0.38,0.93
					c-0.28,0.68-0.64,1.98,0.06,3.04c0.99,1.5,3.93,2.39,6.96,1.19l0.96-0.38l0.34,0.97c0.29,0.83,1.03,2.32,2.7,3.01
					c2.5,1.02,5.86-0.06,7.81-2.52L48.82,74.91z M42.41,19.01l0.03,0.09L42.41,19.01z"/>
				<path fill="#FFFFFF" d="M42.3,81.58c-1.1,0-2.15-0.2-3.11-0.6c-1.78-0.73-2.88-1.99-3.54-3.09c-3.94,0.89-7.32-0.66-8.69-2.75
					c-0.75-1.14-1.02-2.5-0.78-3.97c-1.14-0.62-2.16-1.4-2.98-2.28c-0.54-0.58-1.43-1.54-1.85-2.95c-0.68-2.28,0.2-4.33,1.22-5.79
					c-0.82-1.04-1.59-2.57-1.46-4.54c0.03-0.43,0.1-0.85,0.21-1.26c-0.92-0.25-1.73-0.9-2.26-1.83h-0.73
					c-2.08,0-3.77-1.69-3.77-3.77V47.8c0-2.39,1.69-4.45,3.96-4.97V37.5c0-3.08,2.12-5.78,5.08-6.55
					c3.25-5.71,8.57-10.23,14.71-12.51V18.4l1.87-0.58c0.3-0.09,0.6-0.17,0.89-0.24c0.18-1.77,1.68-3.16,3.5-3.16h6.83
					c1.82,0,3.32,1.39,3.5,3.16c0.29,0.07,0.58,0.15,0.86,0.24l1.34,0.42c6.39,2.21,11.93,6.83,15.28,12.71
					c2.97,0.77,5.08,3.47,5.08,6.55v5.32c2.27,0.53,3.96,2.58,3.96,4.97v0.95c0,2.08-1.69,3.77-3.77,3.77h-0.73
					c-0.24,0.42-0.54,0.79-0.88,1.08c0.26,0.65,0.42,1.32,0.47,2.01c0.13,1.97-0.64,3.5-1.46,4.54c1.02,1.45,1.9,3.5,1.22,5.79
					c-0.42,1.41-1.31,2.37-1.84,2.94c-0.83,0.89-1.85,1.67-2.98,2.29c0.24,1.46-0.03,2.82-0.78,3.97c-1.37,2.09-4.75,3.64-8.69,2.75
					c-0.66,1.1-1.76,2.36-3.54,3.09c-2.99,1.22-6.89,0.42-9.63-1.9C46.97,80.67,44.62,81.58,42.3,81.58z M36.47,76l0.3,0.6
					c0.47,0.95,1.38,2.22,3.02,2.9c2.65,1.09,6.15,0.22,8.46-2.08l0.56-0.56l0.57,0.56c2.3,2.27,5.84,3.16,8.46,2.08
					c1.64-0.67,2.55-1.95,3.02-2.9l0.3-0.6l0.64,0.18c3.42,0.99,6.44-0.26,7.53-1.93c0.61-0.93,0.76-2.05,0.43-3.32l-0.16-0.64
					L70.19,70c1.18-0.57,2.24-1.34,3.06-2.23c0.5-0.53,1.17-1.26,1.48-2.31c0.57-1.91-0.41-3.7-1.34-4.86l-0.43-0.54l0.47-0.51
					c0.73-0.79,1.59-2.11,1.47-3.86c-0.05-0.7-0.24-1.37-0.58-2l-0.37-0.7l0.69-0.38c0.44-0.25,0.81-0.68,1.05-1.24l0.21-0.49h1.75
					c1.19,0,2.17-0.97,2.17-2.17V47.8c0-1.81-1.42-3.35-3.22-3.49l-0.74-0.06V37.5c0-2.45-1.75-4.58-4.16-5.07l-0.36-0.07
					l-0.18-0.33c-3.14-5.68-8.44-10.16-14.55-12.27l-1.3-0.41c-0.44-0.13-0.9-0.25-1.37-0.36l-0.62-0.14v-0.92
					c0-1.05-0.86-1.91-1.91-1.91h-6.83c-1.05,0-1.91,0.86-1.91,1.91v0.92L42.05,19c-0.47,0.11-0.93,0.23-1.41,0.37l-1.26,0.4
					c-6.11,2.12-11.42,6.59-14.55,12.27l-0.18,0.33l-0.36,0.07c-2.41,0.49-4.16,2.62-4.16,5.07v6.75l-0.74,0.06
					c-1.81,0.14-3.22,1.68-3.22,3.49v0.95c0,1.19,0.97,2.17,2.17,2.17h1.75l0.21,0.49c0.39,0.92,1.11,1.46,1.92,1.46h1.47L23.15,54
					c-0.25,0.55-0.4,1.13-0.44,1.72c-0.12,1.75,0.74,3.07,1.47,3.86l0.47,0.51l-0.43,0.54c-0.93,1.16-1.91,2.95-1.34,4.86
					c0.31,1.05,0.99,1.78,1.49,2.31c0.82,0.88,1.88,1.65,3.06,2.22l0.59,0.29l-0.16,0.64c-0.32,1.27-0.18,2.39,0.43,3.32
					c1.1,1.67,4.11,2.92,7.53,1.93L36.47,76z M55.36,79.6c-2.37,0-4.82-1.23-6.39-3.21l-0.15-0.18l-0.15,0.18
					c-2.16,2.73-5.92,3.91-8.74,2.76c-1.97-0.8-2.82-2.53-3.16-3.48l-0.06-0.18l-0.18,0.07c-3.45,1.36-6.74,0.3-7.93-1.5
					c-0.9-1.37-0.47-2.96-0.13-3.79l0.07-0.18l-0.18-0.07c-1.47-0.58-2.76-1.44-3.73-2.48c-0.47-0.51-1.11-1.2-1.4-2.17
					c-0.67-2.24,1.07-4.37,1.85-5.18l0.14-0.14l-0.15-0.13c-0.8-0.67-2.13-2.1-2-4.17c0.07-1.06,0.53-2.08,1.32-2.94l0.29-0.31H22.2
					c-0.81,0-1.51-0.72-1.75-1.8l-0.03-0.15h-2.09c-0.99,0-1.79-0.8-1.79-1.79V47.8c0-1.72,1.4-3.13,3.13-3.13h0.83V37.5
					c0-2.44,1.84-4.49,4.29-4.77l0.15-0.1c3.19-6.05,8.74-10.69,15.23-12.74l0.6-0.18c0.28-0.08,0.57-0.16,0.86-0.23l-0.04-0.18
					l1.46-0.52v-0.85c0-0.85,0.69-1.53,1.53-1.53h6.83c0.85,0,1.53,0.69,1.53,1.53v1.03l1.41,0.22l-0.03,0.3
					c0.3,0.08,0.6,0.16,0.9,0.24l0.58,0.17c6.51,2.05,12.06,6.7,15.25,12.75l0.14,0.1c2.45,0.27,4.29,2.32,4.29,4.77v7.17h0.83
					c1.72,0,3.13,1.4,3.13,3.13v0.95c0,0.99-0.8,1.79-1.79,1.79h-2.09l-0.03,0.15c-0.24,1.08-0.94,1.8-1.75,1.8h-0.85l0.29,0.31
					c0.79,0.86,1.25,1.88,1.32,2.94c0.14,2.07-1.19,3.5-2,4.17l-0.15,0.13l0.14,0.14c0.78,0.81,2.52,2.95,1.86,5.18
					c-0.29,0.97-0.93,1.66-1.4,2.17c-0.97,1.04-2.26,1.9-3.73,2.48l-0.18,0.07l0.07,0.18c0.34,0.82,0.77,2.41-0.13,3.79
					c-1.19,1.8-4.47,2.85-7.93,1.5l-0.18-0.07l-0.06,0.18c-0.34,0.96-1.19,2.68-3.16,3.48C56.98,79.45,56.19,79.6,55.36,79.6z
					 M37.68,73.38l0.61,1.76c0.25,0.7,0.86,1.96,2.25,2.53c2.19,0.89,5.14-0.08,6.88-2.27l1.4-1.77l1.4,1.77
					c1.69,2.13,4.73,3.15,6.88,2.27c1.38-0.57,2-1.83,2.25-2.53l0.61-1.75l1.73,0.68c2.81,1.1,5.29,0.19,6-0.89
					c0.5-0.76,0.21-1.77-0.01-2.3l-0.69-1.68l1.69-0.67c1.25-0.49,2.33-1.21,3.14-2.08c0.4-0.43,0.86-0.92,1.04-1.53
					c0.44-1.47-1.02-3.14-1.48-3.62l-1.33-1.39l1.48-1.23c0.57-0.47,1.51-1.47,1.42-2.83c-0.05-0.69-0.36-1.37-0.9-1.96l-2.76-3h4.5
					c-0.03-0.01,0.11-0.2,0.18-0.54l0.31-1.41h3.39c0.1,0,0.19-0.08,0.19-0.19V47.8c0-0.84-0.68-1.52-1.52-1.52H73.9V37.5
					c0-1.63-1.23-2.99-2.86-3.17l-0.94-0.1l-0.44-0.84c-3-5.68-8.21-10.04-14.3-11.96l-0.57-0.16C54.3,21.13,53.8,21,53.3,20.89
					l-1.95-0.4v-2.54L44.58,18l0.07,2.48l-1.88,0.38c-0.57,0.13-1.07,0.25-1.56,0.4l-0.58,0.17c-6.07,1.92-11.28,6.28-14.28,11.95
					l-0.44,0.84l-0.94,0.1c-1.63,0.18-2.86,1.55-2.86,3.17v8.77h-2.44c-0.84,0-1.52,0.68-1.52,1.52v0.95c0,0.1,0.08,0.19,0.19,0.19
					h3.39l0.31,1.41c0.07,0.34,0.22,0.53,0.27,0.56l6.04-0.02l-2.76,3c-0.54,0.59-0.85,1.27-0.9,1.96
					c-0.09,1.36,0.85,2.36,1.42,2.83l1.48,1.23l-1.33,1.39c-0.46,0.48-1.91,2.15-1.48,3.62c0.18,0.61,0.64,1.1,1.04,1.54
					c0.81,0.87,1.9,1.59,3.14,2.08l1.69,0.67l-0.69,1.68c-0.22,0.53-0.51,1.54-0.01,2.3c0.71,1.08,3.19,1.99,6,0.89L37.68,73.38z"/>
			</g>
			<g>
				<g>
					<path fill="#979797" d="M71.92,60.01c0.18-0.12,2.5-1.67,2.33-4.25c-0.12-1.87-1.51-3.53-3.55-4.28
						c1.39-1.38,1.56-3.42,0.4-4.95c-1.16-1.54-3.37-2.23-5.41-1.69c1.13-1.32,1.43-2.91,0.73-4.15c-0.62-1.11-1.82-1.58-2.37-1.76
						c-1.9-0.61-4.11-0.47-5.87,0.39c-0.55-1.73-2.13-3.07-4.1-3.47c-1.88-0.38-3.86,0.14-5.24,1.33c-1.38-1.19-3.36-1.71-5.24-1.33
						c-1.98,0.4-3.55,1.74-4.1,3.47c-1.77-0.86-3.98-1-5.87-0.39c-0.55,0.18-1.75,0.65-2.37,1.76c-0.7,1.24-0.4,2.83,0.73,4.15
						c-2.03-0.54-4.25,0.15-5.41,1.69c-1.16,1.54-1,3.57,0.4,4.95c-2.05,0.75-3.43,2.41-3.55,4.28c-0.17,2.57,2.14,4.13,2.33,4.25
						c-0.36,0.33-2.95,2.73-2.18,5.28c0.27,0.9,0.88,1.56,1.33,2.05c1.42,1.52,3.13,2.25,4.11,2.59c-0.15,0.28-1.21,2.3-0.12,3.97
						c1.23,1.87,4.77,2.69,8.05,1.17c0.1,0.39,0.74,2.83,3.13,3.81c2.7,1.11,6.68-0.06,8.77-3.2c2.09,3.14,6.06,4.31,8.77,3.2
						c2.39-0.98,3.04-3.42,3.13-3.81c3.28,1.52,6.82,0.7,8.05-1.17c1.09-1.67,0.04-3.69-0.12-3.97c0.98-0.34,2.69-1.06,4.11-2.59
						c0.45-0.49,1.06-1.14,1.33-2.05C74.86,62.73,72.28,60.33,71.92,60.01z"/>
					<path d="M55.36,79.78c-2.39,0-4.9-1.21-6.54-3.28c-2.21,2.79-6.01,4.02-8.96,2.82c-2.02-0.83-2.91-2.59-3.26-3.6
						c-3.51,1.38-6.91,0.31-8.15-1.57c-0.95-1.45-0.5-3.1-0.15-3.96c-1.5-0.59-2.8-1.46-3.79-2.53c-0.48-0.52-1.14-1.23-1.45-2.24
						c-0.69-2.29,1-4.43,1.9-5.37c-0.79-0.66-2.21-2.15-2.06-4.33c0.12-1.84,1.37-3.53,3.23-4.44c-1.13-1.52-1.14-3.52,0.03-5.06
						c1.05-1.39,2.89-2.16,4.74-2.06c-0.68-1.26-0.73-2.62-0.1-3.73c0.64-1.14,1.8-1.71,2.65-1.98c1.85-0.6,3.96-0.52,5.75,0.2
						c0.73-1.65,2.32-2.89,4.28-3.29c1.88-0.38,3.85,0.06,5.34,1.18c1.49-1.12,3.46-1.56,5.34-1.18c1.96,0.4,3.55,1.64,4.28,3.29
						c1.79-0.72,3.9-0.79,5.75-0.2c0.85,0.28,2.01,0.84,2.65,1.98c0.63,1.11,0.58,2.47-0.1,3.73c1.85-0.1,3.69,0.66,4.74,2.06
						c1.17,1.55,1.15,3.54,0.03,5.06c1.86,0.91,3.11,2.59,3.23,4.44c0.15,2.18-1.27,3.67-2.06,4.33c0.9,0.94,2.58,3.08,1.9,5.37
						c-0.3,1.01-0.96,1.72-1.44,2.24c-0.99,1.07-2.3,1.94-3.8,2.53c0.35,0.86,0.8,2.51-0.15,3.96c-1.24,1.88-4.64,2.95-8.15,1.57
						c-0.35,1.01-1.24,2.77-3.26,3.6C57.01,79.63,56.19,79.78,55.36,79.78z M48.82,74.77l0.41,0.62c2.06,3.09,5.84,3.97,8.17,3.01
						c2.05-0.84,2.69-2.87,2.84-3.47l0.14-0.58l0.54,0.25c3.11,1.44,6.35,0.65,7.43-0.99c0.91-1.38,0.05-3.12-0.14-3.46l-0.28-0.51
						l0.55-0.19c1.56-0.54,2.91-1.39,3.91-2.46c0.44-0.47,0.99-1.06,1.22-1.85c0.66-2.19-1.59-4.35-2.04-4.77l-0.48-0.43l0.54-0.35
						c0.09-0.06,2.26-1.49,2.1-3.8c-0.11-1.66-1.38-3.17-3.23-3.85l-0.73-0.27l0.55-0.55c1.21-1.2,1.35-2.97,0.35-4.3
						c-1.04-1.38-3.05-2-4.88-1.51l-1.53,0.41l1.03-1.21c1-1.17,1.26-2.55,0.67-3.58c-0.49-0.86-1.41-1.31-2.09-1.53
						c-1.79-0.58-3.85-0.44-5.51,0.36l-0.51,0.25l-0.17-0.54c-0.5-1.57-1.93-2.77-3.73-3.14c-1.7-0.34-3.54,0.12-4.82,1.22
						l-0.32,0.28l-0.32-0.28c-1.27-1.1-3.12-1.56-4.82-1.22c-1.8,0.37-3.23,1.57-3.73,3.14l-0.17,0.54l-0.51-0.25
						c-1.66-0.81-3.72-0.94-5.51-0.36c-0.69,0.22-1.61,0.67-2.09,1.53c-0.59,1.04-0.33,2.41,0.67,3.59l1.03,1.21l-1.53-0.41
						c-1.84-0.49-3.84,0.13-4.88,1.51c-1,1.33-0.86,3.1,0.35,4.3l0.55,0.55l-0.73,0.27c-1.85,0.68-3.12,2.19-3.23,3.85
						c-0.15,2.31,2.01,3.74,2.1,3.8l0.54,0.35l-0.48,0.43c-0.46,0.41-2.7,2.57-2.04,4.77c0.24,0.79,0.78,1.38,1.22,1.85
						c1,1.07,2.35,1.92,3.91,2.46l0.55,0.19l-0.28,0.51c-0.18,0.34-1.04,2.08-0.14,3.46c1.08,1.64,4.32,2.43,7.43,0.99l0.54-0.25
						l0.14,0.58c0.15,0.6,0.79,2.63,2.84,3.47c2.33,0.95,6.11,0.07,8.17-3.01L48.82,74.77z"/>
				</g>
				<g>
					<circle fill="#FFFFFF" cx="58.1" cy="57.48" r="8.42"/>
					<circle cx="58.1" cy="57.48" r="3.6"/>
				</g>
				<g>
					<circle fill="#FFFFFF" cx="37.98" cy="57.48" r="8.42"/>
					<circle cx="37.98" cy="57.48" r="3.6"/>
				</g>
				<g>
					<g>
						<g>
							<g>
								<g>
									<g>
										<path fill="#F7F051" d="M73.79,52.03H22.21c-0.76,0-1.38-0.94-1.38-2.1l0,0h54.35l0,0
											C75.17,51.09,74.55,52.03,73.79,52.03z"/>
										<path d="M73.79,52.67H22.21c-1.14,0-2.03-1.21-2.03-2.75v-0.64h55.63v0.64C75.82,51.47,74.93,52.67,73.79,52.67z
											 M21.55,50.57c0.14,0.51,0.44,0.82,0.66,0.82h51.58c0.22,0,0.52-0.3,0.66-0.82H21.55z"/>
									</g>
									<g>
										<g>
											<path fill="#F7F051" d="M26.36,45.9h-5.4v-9.73c0-1.67,1.36-3.03,3.03-3.03h2.37V45.9z"/>
											<path d="M27,46.54h-6.69V37.5c0-2.76,2.25-5.01,5.01-5.01H27V46.54z M21.6,45.26h4.12V33.78h-0.39
												c-2.05,0-3.72,1.67-3.72,3.72v7.76H21.6z"/>
										</g>
										<g>
											<path fill="#F7F051" d="M69.64,45.9h5.4v-9.73c0-1.67-1.36-3.03-3.03-3.03h-2.37V45.9z"/>
											<path d="M75.68,46.54H69V32.49h1.68c2.76,0,5.01,2.25,5.01,5.01v9.04H75.68z M70.28,45.26h4.12V37.5
												c0-2.05-1.67-3.72-3.72-3.72h-0.39v11.48H70.28z"/>
										</g>
									</g>
									<g>
										<g>
											<path fill="#F7F051" d="M73.6,45.28c0-0.17,0.01-0.35,0.01-0.52c0-14.14-11.47-25.61-25.61-25.61
												S22.39,30.61,22.39,44.76c0,0.18,0.01,0.35,0.01,0.52H73.6z"/>
											<path d="M74.23,45.92H21.77l-0.02-0.83c0-0.11-0.01-0.22-0.01-0.34C21.75,30.28,33.52,18.5,48,18.5
												s26.25,11.78,26.25,26.25c0,0.12,0,0.23-0.01,0.34L74.23,45.92z M23.03,44.64h49.93C72.9,30.92,61.73,19.79,48,19.79
												S23.1,30.92,23.03,44.64z"/>
										</g>
									</g>
									<g>
										<path fill="#F7F051" d="M40.75,20.19v25.08h14.49V20.19c-2.3-0.68-4.73-1.05-7.25-1.05S43.05,19.52,40.75,20.19z"/>
										<path d="M55.89,45.92H40.11V19.71l0.46-0.14c4.83-1.42,10.02-1.42,14.85,0l0.46,0.14v26.21H55.89z M41.4,44.64h13.2V20.68
											c-4.31-1.18-8.9-1.18-13.21,0v23.96H41.4z"/>
									</g>
									<g>
										<path fill="#F7F051" d="M78.07,50.08H17.93c-0.51,0-0.93-0.42-0.93-0.93v-2.18c0-1.02,0.83-1.86,1.86-1.86h58.29
											c1.02,0,1.86,0.83,1.86,1.86v2.18C79,49.67,78.59,50.08,78.07,50.08z"/>
										<path d="M77.67,50.73H18.33c-1.09,0-1.98-0.89-1.98-1.98V47.8c0-1.83,1.49-3.31,3.31-3.31h56.66
											c1.83,0,3.31,1.49,3.31,3.31v0.95C79.65,49.84,78.76,50.73,77.67,50.73z M19.67,45.77c-1.12,0-2.03,0.91-2.03,2.03v0.95
											c0,0.38,0.31,0.69,0.69,0.69h59.33c0.38,0,0.69-0.31,0.69-0.69V47.8c0-1.12-0.91-2.03-2.03-2.03H19.67z"/>
									</g>
									<g>
										<path fill="#F7F051" d="M49.97,33.14h-3.95c-1.39,0-2.52-1.13-2.52-2.52V17.61c0-0.41,0.34-0.75,0.75-0.75h7.49
											c0.41,0,0.75,0.34,0.75,0.75v13.01C52.5,32.01,51.37,33.14,49.97,33.14z"/>
										<path d="M48.86,33.78h-1.72c-2.36,0-4.28-1.92-4.28-4.28V17.94c0-0.95,0.77-1.72,1.72-1.72h6.83
											c0.95,0,1.72,0.77,1.72,1.72V29.5C53.14,31.86,51.22,33.78,48.86,33.78z M44.58,17.5c-0.24,0-0.44,0.2-0.44,0.44V29.5
											c0,1.65,1.34,2.99,2.99,2.99h1.72c1.65,0,2.99-1.34,2.99-2.99V17.94c0-0.24-0.2-0.44-0.44-0.44H44.58z"/>
									</g>
								</g>
								<g>
									<circle fill="#A4A4A4" cx="48" cy="39.3" r="9.9"/>
									<path d="M48,49.84c-5.82,0-10.55-4.73-10.55-10.55S42.18,28.75,48,28.75s10.55,4.73,10.55,10.55S53.82,49.84,48,49.84z
										 M48,30.04c-5.11,0-9.26,4.15-9.26,9.26s4.15,9.26,9.26,9.26s9.26-4.15,9.26-9.26S53.11,30.04,48,30.04z"/>
								</g>
								<g>
									<circle fill="#FFFFFF" cx="48" cy="39.3" r="6.67"/>
									<path d="M48,46.61c-4.03,0-7.31-3.28-7.31-7.31s3.28-7.31,7.31-7.31s7.31,3.28,7.31,7.31S52.03,46.61,48,46.61z M48,33.27
										c-3.32,0-6.03,2.7-6.03,6.03c0,3.32,2.7,6.03,6.03,6.03s6.03-2.7,6.03-6.03C54.02,35.97,51.32,33.27,48,33.27z"/>
								</g>
							</g>
						</g>
					</g>
				</g>
			</g>
		</g>
	</g>
</g>
</svg>
