<?xml version="1.0" encoding="utf-8"?>
<!-- GeneratoＤr: Adobe Illustrator 25.4.1, SVG Export Plug-In . SVG Version: 6.00 Build 0)  -->
<svg version="1.1" id="Layer_1" xmlns="http://www.w3.org/2000/svg" xmlns:xlink="http://www.w3.org/1999/xlink" x="0px" y="0px"
	 viewBox="0 0 96 96" style="enable-background:new 0 0 96 96;" xml:space="preserve">
<style type="text/css">
	.st0{fill:#F3BA2F;}
</style>
<g>
	<circle cx="48" cy="48" r="48"/>
	<g id="token-wbnb">
		<g id="binance-coin-bnb-logo" transform="translate(80.000000, 80.000000)">
			<path id="Shape" class="st0" d="M-46.9-38.1L-32-53l14.9,14.9l8.7-8.7L-32-70.4l-23.6,23.6L-46.9-38.1 M-70.4-32l8.7-8.7L-53-32
				l-8.7,8.7L-70.4-32z M-46.9-25.9L-32-11l14.9-14.9l8.7,8.7l0,0L-32,6.4l-23.6-23.6l0,0L-46.9-25.9 M-11-32l8.7-8.7L6.4-32
				l-8.7,8.7L-11-32z"/>
			<polyline id="Path" class="st0" points="-23.2,-32 -23.2,-32 -32,-40.8 -38.5,-34.3 -38.5,-34.3 -39.3,-33.6 -40.8,-32 
				-40.8,-32 -40.8,-32 -32,-23.2 -23.2,-32 -23.2,-32 -23.2,-32 			"/>
		</g>
	</g>
</g>
</svg>
