<svg xmlns="http://www.w3.org/2000/svg" width="23.51" height="23.51" viewBox="0 0 23.51 23.51">
  <g id="Group_1772" data-name="Group 1772" transform="translate(-3199.075 -2602.883)">
    <circle id="Ellipse_3081" data-name="Ellipse 3081" cx="11.755" cy="11.755" r="11.755" transform="translate(3199.075 2602.883)" fill="#545454"/>
    <path id="Path_10597" data-name="Path 10597" d="M3216.214,2611.075v7.122c0,.051,0,.1,0,.154a.315.315,0,0,0,.1.247c.331.323.661.649.993.971.083.079.029.172.049.265h-5.133a.322.322,0,0,1,.093-.319c.321-.295.627-.6.942-.907a.369.369,0,0,0,.123-.286q0-2.949,0-5.9a.051.051,0,0,0-.014-.037c-.011.025-.022.05-.032.076q-1.43,3.628-2.856,7.257c-.027.069-.058.1-.134.092a1.059,1.059,0,0,0-.219,0,.108.108,0,0,1-.121-.077c-.309-.682-.622-1.362-.934-2.043q-1.2-2.613-2.4-5.226a.165.165,0,0,0-.054-.071v.1q0,2.388,0,4.775a1.657,1.657,0,0,0,.025.361.614.614,0,0,0,.128.249c.439.54.88,1.077,1.329,1.608a.4.4,0,0,1,.078.321h-3.892a.389.389,0,0,1,.078-.323c.445-.527.882-1.062,1.32-1.6a.656.656,0,0,0,.152-.514.944.944,0,0,1,0-.1q0-2.823,0-5.645a.749.749,0,0,0-.193-.529c-.373-.432-.728-.88-1.1-1.313a.377.377,0,0,1-.088-.337c.026,0,.052,0,.078,0q1.815,0,3.631,0a.111.111,0,0,1,.118.08q1.422,3.125,2.848,6.249c.013.029.028.058.049.1l.137-.338,2.409-6.014c.019-.048.038-.077.1-.077q1.737,0,3.476,0l.068,0a.321.321,0,0,1-.093.318c-.329.3-.645.611-.966.917a.317.317,0,0,0-.1.248C3216.212,2610.977,3216.214,2611.026,3216.214,2611.075Z"/>
  </g>
</svg>
