<svg xmlns="http://www.w3.org/2000/svg" width="182.859" height="154.376" viewBox="0 0 182.859 154.376">
  <g id="Group_990" data-name="Group 990" transform="translate(-3543.496 -1716.689)">
    <rect id="Rectangle_257" data-name="Rectangle 257" width="146.963" height="102.743" transform="translate(3561.585 1765.822)" fill="#827ddc" stroke="#000" stroke-linejoin="round" stroke-width="5"/>
    <path id="Rectangle_258" data-name="Rectangle 258" d="M8.439,0H132.216a8.439,8.439,0,0,1,8.439,8.439v7a0,0,0,0,1,0,0H0a0,0,0,0,1,0,0v-7A8.439,8.439,0,0,1,8.439,0Z" transform="translate(3564.598 1719.189)" fill="#ffa50a" stroke="#000" stroke-linejoin="round" stroke-width="5"/>
    <path id="Path_8244" data-name="Path 8244" d="M3547.694,1765.822h47.2l7.336-31.2H3564.6Z" fill="#41378c" stroke="#000" stroke-miterlimit="10" stroke-width="5"/>
    <path id="Path_8245" data-name="Path 8245" d="M3594.9,1765.822h40.028v-31.2h-32.692Z" fill="#41378c" stroke="#000" stroke-miterlimit="10" stroke-width="5"/>
    <path id="Path_8246" data-name="Path 8246" d="M3722.157,1765.822h-47.2l-7.336-31.2h37.635Z" fill="#41378c" stroke="#000" stroke-miterlimit="10" stroke-width="5"/>
    <path id="Path_8247" data-name="Path 8247" d="M3674.953,1765.822h-40.028v-31.2h32.692Z" fill="#41378c" stroke="#000" stroke-miterlimit="10" stroke-width="5"/>
    <path id="Path_8248" data-name="Path 8248" d="M3594.9,1765.822c0,10.992-10.567,19.9-23.6,19.9s-23.6-8.911-23.6-19.9Z" fill="#41378c" stroke="#000" stroke-miterlimit="10" stroke-width="5"/>
    <path id="Path_8249" data-name="Path 8249" d="M3634.925,1765.822a20.014,20.014,0,0,1-40.027,0Z" fill="#41378c" stroke="#000" stroke-miterlimit="10" stroke-width="5"/>
    <path id="Path_8250" data-name="Path 8250" d="M3674.953,1765.822a20.014,20.014,0,0,1-40.028,0Z" fill="#41378c" stroke="#000" stroke-miterlimit="10" stroke-width="5"/>
    <path id="Path_8251" data-name="Path 8251" d="M3722.157,1765.822c0,10.992-10.567,19.9-23.6,19.9s-23.6-8.911-23.6-19.9Z" fill="#41378c" stroke="#000" stroke-miterlimit="10" stroke-width="5"/>
    <rect id="Rectangle_259" data-name="Rectangle 259" width="37.654" height="31.199" rx="3.039" transform="translate(3579.691 1801.863)" fill="#73c8f0" stroke="#000" stroke-linejoin="round" stroke-width="5"/>
    <line id="Line_23" data-name="Line 23" x2="37.654" transform="translate(3579.691 1817.463)" fill="#73c8f0" stroke="#000" stroke-linejoin="round" stroke-width="5"/>
    <line id="Line_24" data-name="Line 24" y2="31.199" transform="translate(3598.519 1801.863)" fill="#73c8f0" stroke="#000" stroke-linejoin="round" stroke-width="5"/>
    <path id="Rectangle_260" data-name="Rectangle 260" d="M4.063,0H30.186a4.063,4.063,0,0,1,4.063,4.063V66.7a0,0,0,0,1,0,0H0a0,0,0,0,1,0,0V4.063A4.063,4.063,0,0,1,4.063,0Z" transform="translate(3645.913 1801.863)" fill="#faf300" stroke="#000" stroke-linejoin="round" stroke-width="5"/>
  </g>
</svg>
