<svg xmlns="http://www.w3.org/2000/svg" width="228.688" height="39.327" viewBox="0 0 228.688 39.327">
  <g id="Group_937" data-name="Group 937" transform="translate(-3229.284 -2218.197)">
    <path id="Path_8191" data-name="Path 8191" d="M3262.972,2241.709a2.087,2.087,0,0,1-2.1.153,3.219,3.219,0,0,1-1.219-2.9v-4.307c0-2.057-.8-3.544-2.173-3.925-2.324-.686-4.077,2.172-4.725,3.24l-4.116,6.592v-8.117c-.038-1.867-.648-2.972-1.791-3.315-.762-.229-1.905-.115-3.01,1.562l-9.184,14.71a16.253,16.253,0,0,1-1.868-7.545,15.855,15.855,0,1,1,31.706,0v.076a4.054,4.054,0,0,1-1.524,3.772Zm5.03-3.848h0v-.077a19.362,19.362,0,1,0-19.359,19.74,19.024,19.024,0,0,0,13.148-5.259,1.78,1.78,0,0,0-2.4-2.629l-.038.038a15.661,15.661,0,0,1-22.56-1.029l8.269-13.261v6.135c0,2.934,1.143,3.887,2.1,4.154s2.4.076,3.963-2.4l4.535-7.355a4.34,4.34,0,0,1,.419-.61v3.735c0,2.744,1.106,4.954,3.011,6.021a5.535,5.535,0,0,0,5.678-.229A7.549,7.549,0,0,0,3268,2237.861Zm26.981-6.707a1.909,1.909,0,0,1,.876,1.486,1.684,1.684,0,0,1-1.638,1.676,2.892,2.892,0,0,1-.61-.114,6.265,6.265,0,0,0-3.7-1.257c-3.24,0-5.45,2.629-5.45,5.906s2.248,5.869,5.45,5.869a5.918,5.918,0,0,0,4.115-1.677,1.673,1.673,0,0,1,.953-.3,1.546,1.546,0,0,1,1.562,1.563,1.624,1.624,0,0,1-.762,1.334,9.046,9.046,0,1,1-5.83-16.006A8.614,8.614,0,0,1,3294.983,2231.154Zm9.07,3.81a6.329,6.329,0,0,1,6.211,6.4,6.482,6.482,0,0,1-6.211,6.516,6.556,6.556,0,0,1-6.479-6.516A6.458,6.458,0,0,1,3304.053,2234.964Zm-.038,9.756a3.043,3.043,0,0,0,2.743-3.315,2.862,2.862,0,0,0-2.743-3.125,2.916,2.916,0,0,0-2.935,3.125A3.133,3.133,0,0,0,3304.015,2244.72Zm8.383,1.181v-8.993a1.757,1.757,0,0,1,1.753-1.791,1.781,1.781,0,0,1,1.753,1.791v8.993a1.781,1.781,0,0,1-1.753,1.791A1.807,1.807,0,0,1,3312.4,2245.9Zm-.266-14.176a2.05,2.05,0,0,1,2.019-2.1,2.082,2.082,0,0,1,2.058,2.1,2.039,2.039,0,1,1-4.077,0Zm10.479,9.3v4.877a1.753,1.753,0,1,1-3.506,0v-9.412a1.353,1.353,0,1,1,2.706,0,5.086,5.086,0,0,1,3.849-1.525c3.506,0,5.068,2.63,5.068,5.64v5.3a1.753,1.753,0,1,1-3.506,0v-4.877c0-1.525-.19-2.82-2.4-2.82-1.563,0-2.211,1.295-2.211,2.82Zm19.474,1.867a1.14,1.14,0,0,1-.915-.457l-4.077-4.421v7.888a1.753,1.753,0,1,1-3.506,0v-15.624a.741.741,0,0,1,.647-.457,1.227,1.227,0,0,1,.763.457l6.516,7.317a.854.854,0,0,0,.572.343.938.938,0,0,0,.571-.343l6.517-7.317a1.129,1.129,0,0,1,.762-.457.664.664,0,0,1,.648.457V2245.9a1.756,1.756,0,0,1-1.753,1.791,1.781,1.781,0,0,1-1.753-1.791v-7.888l-4.078,4.421a1.409,1.409,0,0,1-.914.457Zm16.844,1.829a3.1,3.1,0,0,0,2.9-3.315,2.987,2.987,0,0,0-2.9-3.163,2.924,2.924,0,0,0-2.782,3.163A3.067,3.067,0,0,0,3358.929,2244.72Zm3.734,1.6-.076-.42c-.686,1.334-2.858,1.944-4.23,1.944-3.277,0-5.716-2.973-5.716-6.517,0-3.506,2.477-6.4,5.906-6.4a5.484,5.484,0,0,1,4.078,1.944l.076-.419a1.334,1.334,0,0,1,1.334-1.372,1.391,1.391,0,0,1,1.372,1.372v9.831a1.366,1.366,0,0,1-1.372,1.372,1.312,1.312,0,0,1-1.372-1.333Zm12.385-8.117h-.381c-2.21.114-2.629,1.371-2.629,2.82v4.877a1.753,1.753,0,1,1-3.506,0v-9.412a1.353,1.353,0,1,1,2.706,0,4.856,4.856,0,0,1,3.429-1.525h.343a1.643,1.643,0,0,1,1.6,1.639,1.6,1.6,0,0,1-1.563,1.6Zm13.529,6.859a1.681,1.681,0,0,1,.267.838,1.827,1.827,0,0,1-1.753,1.753,2.164,2.164,0,0,1-1.563-.99l-4.039-4.688v3.887a1.753,1.753,0,1,1-3.506,0v-14.29a1.753,1.753,0,1,1,3.506,0v8.917l4.039-4.459a2.293,2.293,0,0,1,1.524-.952,1.751,1.751,0,0,1,1.677,1.715,1.5,1.5,0,0,1-.228.8l-3.2,3.506,3.278,3.963Zm6.859-6.821c-.952,0-2.515.5-2.515,1.981h5.069c-.039-1.486-1.639-1.981-2.554-1.981Zm4.573,4.23h-7.088c0,2.1,2.02,2.439,2.9,2.439a5.691,5.691,0,0,0,2.287-.458,1.729,1.729,0,0,1,.914-.266,1.439,1.439,0,0,1,1.41,1.448,1.543,1.543,0,0,1-.762,1.257,6.3,6.3,0,0,1-3.811.991c-3.544,0-6.478-1.905-6.478-6.364,0-3.506,1.791-6.555,5.983-6.555,3.392,0,5.945,2.211,6.021,6.136a1.391,1.391,0,0,1-1.372,1.372Zm9.756,5.373h-.953c-2.667,0-4.23-1.181-4.23-5.335V2238.2h-.914a1.621,1.621,0,0,1,0-3.24h.914v-3.315a1.757,1.757,0,0,1,1.753-1.791,1.781,1.781,0,0,1,1.753,1.791v3.315h1.448a1.612,1.612,0,0,1,1.563,1.639,1.658,1.658,0,0,1-1.563,1.6h-1.448v3.62c0,2.4.115,2.9,1.182,2.9h.495a1.569,1.569,0,0,1,1.562,1.562,1.6,1.6,0,0,1-1.562,1.563Zm16.958-16.691a1.91,1.91,0,0,1,.877,1.486,1.685,1.685,0,0,1-1.639,1.676,2.892,2.892,0,0,1-.61-.114,6.262,6.262,0,0,0-3.7-1.257c-3.239,0-5.45,2.629-5.45,5.906s2.249,5.869,5.45,5.869a5.918,5.918,0,0,0,4.115-1.677,1.673,1.673,0,0,1,.953-.3,1.546,1.546,0,0,1,1.563,1.563,1.622,1.622,0,0,1-.763,1.334,9.046,9.046,0,1,1-5.83-16.006,8.531,8.531,0,0,1,5.03,1.525Zm8.879,13.566a3.1,3.1,0,0,0,2.9-3.315,2.987,2.987,0,0,0-2.9-3.163,2.9,2.9,0,0,0-2.782,3.163,3.093,3.093,0,0,0,2.782,3.315Zm3.735,1.6-.076-.42c-.686,1.334-2.858,1.944-4.23,1.944-3.278,0-5.716-2.973-5.716-6.517,0-3.506,2.477-6.4,5.906-6.4a5.484,5.484,0,0,1,4.078,1.944l.076-.419a1.334,1.334,0,0,1,1.334-1.372,1.391,1.391,0,0,1,1.372,1.372v9.831a1.366,1.366,0,0,1-1.372,1.372A1.312,1.312,0,0,1,3439.337,2246.321Zm12.309-1.6a3.068,3.068,0,0,0,2.782-3.315,2.9,2.9,0,0,0-2.782-3.163,2.964,2.964,0,0,0-2.9,3.163A3.1,3.1,0,0,0,3451.646,2244.72Zm-2.9,2.1v4.459a1.753,1.753,0,1,1-3.506,0v-14.786a1.367,1.367,0,0,1,1.372-1.372,1.4,1.4,0,0,1,1.333,1.524,5.637,5.637,0,0,1,4.116-1.677c3.392,0,5.907,2.858,5.907,6.4,0,3.505-2.4,6.516-5.716,6.516a6.719,6.719,0,0,1-3.506-1.067Z" fill="#38393f"/>
  </g>
</svg>
