<svg width="1776.131" height="462.192" viewBox="0 0 1776.131 462.192">
  <g id="Group_1379" data-name="Group 1379" transform="translate(-2521.221 -1104.148)">
    <g id="Group_898" data-name="Group 898" opacity="0.25">
      <path id="Path_8144" data-name="Path 8144" d="M2693.26,1307.425l102.147,77.644,224.626-55.76s112.9,20.912,114.234,22.864,95.862-.924,95.862-.924l40.2,20.905,24.066-9.181,19.513-7.719,66.22,9.469,51.452-.06,59.339-42.554,86.024-18.129s105.11-4.114,108.587-5.463,156.039-24.6,156.039-24.6l51.386-14.694,68.406,43.821v209.1H2523.03l37.026-196.39,69.058,24.071Z" fill="#d0d0d0" stroke="#000" stroke-miterlimit="10" stroke-width="3"/>
      <path id="Path_8145" data-name="Path 8145" d="M3576.94,1303.98l154.014,67.305,235.156,166.226H3324.684s82.677-75.037,82.448-76.6-4.894-58.278-4.894-58.278l8.207-36.583,80.734-46.561Z" fill="#999" stroke="#000" stroke-miterlimit="10" stroke-width="3"/>
      <path id="Path_8146" data-name="Path 8146" d="M3871.229,1522.523l422.715-2.3,1.9-155.154-235.155-123.948L3930.5,1105.81l-123.9,30.388-38.233,57.409-36.392,36.583-46.443,68.326Z" fill="#999" stroke="#000" stroke-miterlimit="10" stroke-width="3"/>
      <path id="Path_8147" data-name="Path 8147" d="M3020.033,1302.532l95.235,63.5,69.407,24.37,33.209,21.707,39.331,42.367,241.81,82.691s-300.5.341-303.873.341-376.007-18.08-376.007-18.08-25.2-97.987-22.5-98.57,59.75-62.408,59.75-62.408Z" fill="#999" stroke="#000" stroke-miterlimit="10" stroke-width="3"/>
      <path id="Path_8148" data-name="Path 8148" d="M4080.748,1558.509l-545.9-21,152.513-99.11,56.964-81.723,66.642-57.573,74.621-27.462,82.975,11.511,81.078,51.746,89.076,23.549,58.872,25.085v181.223Z" fill="#838383" stroke="#000" stroke-miterlimit="10" stroke-width="3"/>
      <path id="Path_8149" data-name="Path 8149" d="M3228.235,1547.135l-149.026-47.243s-31.36-43.744-32.751-45.786-50.536-29.925-50.536-29.925l-130.872-101.84-63.148,17.985-62.415,81.118-44.21,120.762,77.964.555Z" fill="#7c7c7c" stroke="#000" stroke-miterlimit="10" stroke-width="3"/>
    </g>
    <g id="Group_899" data-name="Group 899">
      <path id="Path_8150" data-name="Path 8150" d="M3147.145,1489.354l-1.9-27.533-12.272-10.918-46.5,3.274-7.62,3.356,1.271,43.227,49.964,15.138Z" fill="#faf300" stroke="#000" stroke-linejoin="round" stroke-width="2"/>
      <path id="Path_8151" data-name="Path 8151" d="M3173.276,1469.655l-2.583-20-18.292-6.307-17.117-18.722-30.807,4.37-18,25.179,45.948-2.944,12.272,10.918,2.452,27.2-17.056,26.544,58.749,18.624V1506.24Z" fill="#4c4512" stroke="#000" stroke-linejoin="round" stroke-width="2"/>
    </g>
    <g id="Group_902" data-name="Group 902">
      <path id="Path_8152" data-name="Path 8152" d="M3836.983,1242.683l-4.307-14.836,7.43-6.61,14.464-6.973-.784,18.222,10.141,46.765-30.552,11.117Z" fill="#faf300" stroke="#000" stroke-linejoin="round" stroke-width="2"/>
      <path id="Path_8153" data-name="Path 8153" d="M3825.1,1263.434l2.576-21.9-3.878-20.841,8.134-10.406,16.366-3.854,6.269,7.829-14.464,6.973-7.43,6.61,4.307,14.836-3.608,47.686-18.544,6.824L3825.1,1276.7Z" fill="#4c4512" stroke="#000" stroke-linejoin="round" stroke-width="2"/>
    </g>
  </g>
</svg>
