<?xml version="1.0" encoding="utf-8"?>
<!-- Generator: Adobe Illustrator 25.4.1, SVG Export Plug-In . SVG Version: 6.00 Build 0)  -->
<svg version="1.1" id="Layer_1" xmlns="http://www.w3.org/2000/svg" xmlns:xlink="http://www.w3.org/1999/xlink" x="0px" y="0px"
	 viewBox="0 0 99 99" style="enable-background:new 0 0 99 99;" xml:space="preserve">
<style type="text/css">
	.st0{fill:#FFFFFF;}
	.st1{fill:#959595;}
	.st2{fill:#F5EE51;}
	.st3{fill:#A2A2A2;}
</style>
<g>
	<g>
		<g>
			<g>
				<path d="M92.1,44.2h-1V33.7c0-3.9-2.9-7.1-6.7-7.5c-4.8-9.1-13.1-16.1-23-19.2v0l-0.7-0.2c-0.2-0.1-0.4-0.1-0.7-0.2
					c-0.5-0.1-1-0.3-1.5-0.4c-0.2-0.1-0.5-0.1-0.7-0.2C57.6,6,57.4,6,57.2,6V4.3c0-1.4-1.2-2.6-2.6-2.6H44.4c-1.4,0-2.6,1.2-2.6,2.6
					V6c-0.2,0-0.4,0.1-0.6,0.1c-0.2,0-0.5,0.1-0.7,0.2c-0.5,0.1-1,0.2-1.5,0.4c-0.2,0.1-0.4,0.1-0.7,0.2L37.6,7v0
					c-10,3.1-18.2,10.1-23,19.2c-3.8,0.4-6.7,3.6-6.7,7.5v10.5h-1c-2.7,0-5,2.2-5,5v1.4c0,1.6,1.3,3,3,3h2.9
					c0.4,1.7,1.5,2.9,2.9,2.9h1.9c-1.2,1.3-1.9,2.9-2,4.6c-0.2,3.3,1.9,5.5,3.1,6.5c-1.4,1.4-3.9,4.6-2.9,8.1
					c0.5,1.5,1.4,2.6,2.2,3.4c1.5,1.6,3.5,2.9,5.7,3.8c-0.5,1.3-1.2,3.8,0.2,5.9c1.9,2.8,7,4.4,12.2,2.4c0.5,1.5,1.9,4.2,4.9,5.4
					c4.4,1.8,10.1,0,13.5-4.2c2.5,3.1,6.2,4.9,9.8,4.9c1.3,0,2.5-0.2,3.6-0.7c3-1.2,4.4-3.9,4.9-5.4c5.3,2.1,10.4,0.5,12.2-2.4
					c1.4-2.2,0.8-4.7,0.2-5.9c2.2-0.9,4.2-2.2,5.7-3.8c0.7-0.8,1.7-1.8,2.2-3.4c1-3.4-1.5-6.7-2.9-8.1c1.2-1,3.3-3.2,3.1-6.5
					c-0.1-1.7-0.9-3.3-2-4.6h1.9c1.4,0,2.5-1.2,2.9-2.9h2.9c1.6,0,3-1.3,3-3v-1.4C97,46.4,94.8,44.2,92.1,44.2z"/>
				<path class="st0" d="M39.7,99c-1.5,0-2.9-0.3-4.3-0.8c-2.7-1.1-4.3-3.2-5.2-4.9c-5.7,1.6-10.7-0.5-12.7-3.5
					c-1.4-2.1-1.3-4.3-0.9-5.9c-1.9-0.9-3.5-2.1-4.9-3.6c-0.8-0.9-2-2.1-2.6-4c-1-3.4,0.6-6.4,2.1-8.4C10,66.3,8.7,64,8.9,61
					c0.1-1,0.3-2,0.7-2.9c-1.3-0.4-2.3-1.4-3-2.8H4.9c-2.6,0-4.7-2.1-4.7-4.7v-1.4c0-3.4,2.6-6.3,6-6.6v-8.8c0-4.4,3.1-8.1,7.3-9
					c4.9-8.8,13-15.6,22.4-18.9v0l1.9-0.6c0.2,0,0.3-0.1,0.5-0.1L38.6,5c0.5-0.1,1-0.3,1.5-0.4V4.3C40.1,2,42,0,44.4,0h10.3
					C57,0,58.9,2,58.9,4.3v0.2c0.5,0.1,1,0.2,1.5,0.4L60.7,5c0.2,0,0.3,0.1,0.5,0.1l1.9,0.6v0.1c9.4,3.3,17.5,10.1,22.4,18.9
					c4.2,0.9,7.3,4.6,7.3,9v8.8c3.3,0.4,6,3.2,6,6.6v1.4c0,2.6-2.1,4.7-4.7,4.7h-1.7c-0.6,1.4-1.7,2.4-3,2.8
					c0.4,0.9,0.7,1.9,0.7,2.9c0.2,3-1.1,5.3-2.5,6.7c1.6,2,3.2,5.1,2.1,8.4c-0.6,1.9-1.8,3.2-2.6,4c-1.3,1.4-3,2.6-4.9,3.6
					c0.4,1.7,0.5,3.9-0.9,5.9c-2,3-7,5.1-12.7,3.5c-0.9,1.7-2.5,3.7-5.2,4.9c-1.3,0.5-2.8,0.8-4.3,0.8c-3.5,0-7.1-1.5-9.8-4.1
					C46.8,97.5,43.2,99,39.7,99z M49.5,89.6l1.3,1.7c2.1,2.6,5.3,4.3,8.5,4.3c1.1,0,2.1-0.2,3-0.6c2.4-1,3.5-3.2,3.9-4.4l0.6-1.7
					l1.7,0.6c4.5,1.7,8.8,0.5,10.2-1.7c1-1.5,0.5-3.4,0.1-4.4l-0.7-1.6l1.6-0.6c2-0.8,3.8-2,5.1-3.4c0.6-0.7,1.4-1.6,1.8-2.7
					c0.8-2.6-1.4-5.3-2.4-6.4l-1.3-1.3l1.4-1.2c1-0.8,2.7-2.6,2.5-5.1c-0.1-1.3-0.6-2.5-1.6-3.5l-2.6-2.9h5.7c0.5,0,1-0.7,1.2-1.6
					l0.3-1.3h4.3c0.7,0,1.3-0.6,1.3-1.3v-1.4c0-1.8-1.5-3.3-3.3-3.3h-2.7V33.7c0-3-2.2-5.5-5.2-5.8l-0.9-0.1L82.9,27
					c-4.6-8.7-12.7-15.4-22-18.4l-0.7-0.2c-0.1,0-0.3-0.1-0.4-0.1l-0.2-0.1c-0.5-0.1-0.9-0.2-1.4-0.4l-0.2,0c-0.2,0-0.3-0.1-0.5-0.1
					l-0.1,0c-0.1,0-0.3-0.1-0.4-0.1l-1.4-0.3v-3c0-0.5-0.4-0.9-0.9-0.9H44.4c-0.5,0-0.9,0.4-0.9,0.9v3l-1.4,0.3
					c-0.1,0-0.3,0.1-0.4,0.1l-0.1,0c-0.2,0-0.3,0.1-0.5,0.1l-0.2,0c-0.5,0.1-0.9,0.2-1.4,0.4l-0.2,0.1c-0.1,0-0.3,0.1-0.4,0.1
					l-0.7,0.2c-9.4,3-17.4,9.7-22,18.4l-0.4,0.8l-0.9,0.1c-3,0.3-5.2,2.8-5.2,5.8v12.2H6.9c-1.8,0-3.3,1.5-3.3,3.3v1.4
					c0,0.7,0.6,1.3,1.3,1.3h4.3l0.3,1.3c0.2,0.9,0.7,1.6,1.2,1.6h5.7l-2.6,2.9c-1,1-1.5,2.3-1.6,3.5c-0.2,2.5,1.5,4.2,2.5,5.1
					l1.4,1.2l-1.3,1.3c-1,1-3.2,3.8-2.4,6.4c0.3,1.1,1.1,2,1.8,2.7c1.3,1.4,3.1,2.6,5.1,3.4l1.6,0.6l-0.7,1.6
					c-0.4,1-0.9,2.8,0.1,4.4c1.4,2.2,5.7,3.5,10.2,1.7l1.7-0.6l0.6,1.7c0.4,1.2,1.5,3.4,3.9,4.4c3.7,1.5,8.6-0.1,11.5-3.7L49.5,89.6
					z"/>
			</g>
			<g>
				<g>
					<g>
						<g>
							<path class="st1" d="M84.2,67.5c0.3-0.2,3.8-2.5,3.5-6.4c-0.2-2.8-2.3-5.3-5.3-6.4c2.1-2.1,2.3-5.1,0.6-7.4
								c-1.7-2.3-5.1-3.3-8.1-2.5c1.7-2,2.1-4.4,1.1-6.2c-0.9-1.7-2.7-2.4-3.6-2.6c-2.9-0.9-6.2-0.7-8.8,0.6
								c-0.8-2.6-3.2-4.6-6.2-5.2c-2.8-0.6-5.8,0.2-7.9,2c-2.1-1.8-5-2.6-7.9-2c-3,0.6-5.3,2.6-6.2,5.2c-2.7-1.3-6-1.5-8.8-0.6
								c-0.8,0.3-2.6,1-3.6,2.6c-1.1,1.9-0.6,4.3,1.1,6.2c-3.1-0.8-6.4,0.2-8.1,2.5c-1.7,2.3-1.5,5.4,0.6,7.4
								c-3.1,1.1-5.2,3.6-5.3,6.4c-0.3,3.9,3.2,6.2,3.5,6.4c-0.5,0.5-4.4,4.1-3.3,7.9c0.4,1.4,1.3,2.3,2,3.1
								c2.1,2.3,4.7,3.4,6.2,3.9c-0.2,0.4-1.8,3.5-0.2,6c1.8,2.8,7.2,4,12.1,1.8c0.1,0.6,1.1,4.3,4.7,5.7c4.1,1.7,10-0.1,13.2-4.8
								c3.1,4.7,9.1,6.5,13.2,4.8c3.6-1.5,4.6-5.1,4.7-5.7c4.9,2.3,10.3,1,12.1-1.8c1.6-2.5,0.1-5.5-0.2-6c1.5-0.5,4-1.6,6.2-3.9
								c0.7-0.7,1.6-1.7,2-3.1C88.6,71.6,84.7,68,84.2,67.5z"/>
							<path d="M59.3,97.2c-3.6,0-7.4-1.8-9.8-4.9c-3.3,4.2-9,6-13.5,4.2c-3-1.2-4.4-3.9-4.9-5.4c-5.3,2.1-10.4,0.5-12.2-2.4
								c-1.4-2.2-0.8-4.7-0.2-5.9C16.4,82,14.5,80.7,13,79c-0.7-0.8-1.7-1.8-2.2-3.4c-1-3.4,1.5-6.7,2.9-8.1c-1.2-1-3.3-3.2-3.1-6.5
								c0.2-2.8,2.1-5.3,4.9-6.7c-1.7-2.3-1.7-5.3,0-7.6c1.6-2.1,4.3-3.2,7.1-3.1c-1-1.9-1.1-3.9-0.1-5.6c1-1.7,2.7-2.6,4-3
								c2.8-0.9,5.9-0.8,8.6,0.3c1.1-2.5,3.5-4.3,6.4-4.9c2.8-0.6,5.8,0.1,8,1.8c2.2-1.7,5.2-2.3,8-1.8c2.9,0.6,5.3,2.5,6.4,4.9
								c2.7-1.1,5.9-1.2,8.6-0.3c1.3,0.4,3,1.3,4,3c0.9,1.7,0.9,3.7-0.1,5.6c2.8-0.2,5.5,1,7.1,3.1c1.8,2.3,1.7,5.3,0,7.6
								c2.8,1.4,4.7,3.9,4.9,6.7c0.2,3.3-1.9,5.5-3.1,6.5c1.4,1.4,3.9,4.6,2.9,8.1c-0.5,1.5-1.4,2.6-2.2,3.4
								c-1.5,1.6-3.5,2.9-5.7,3.8c0.5,1.3,1.2,3.8-0.2,5.9c-1.9,2.8-7,4.4-12.2,2.4c-0.5,1.5-1.9,4.2-4.9,5.4
								C61.8,97,60.6,97.2,59.3,97.2z M49.5,89.7l0.6,0.9c3.1,4.6,8.8,6,12.3,4.5c3.1-1.3,4-4.3,4.3-5.2l0.2-0.9l0.8,0.4
								c4.7,2.2,9.5,1,11.2-1.5c1.4-2.1,0.1-4.7-0.2-5.2L78.2,82l0.8-0.3c2.3-0.8,4.4-2.1,5.9-3.7c0.7-0.7,1.5-1.6,1.8-2.8
								c1-3.3-2.4-6.5-3.1-7.2L83,67.4l0.8-0.5c0.1-0.1,3.4-2.2,3.2-5.7c-0.2-2.5-2.1-4.8-4.9-5.8L81,55l0.8-0.8
								c1.8-1.8,2-4.5,0.5-6.5c-1.6-2.1-4.6-3-7.3-2.3l-2.3,0.6l1.6-1.8c1.5-1.8,1.9-3.8,1-5.4c-0.7-1.3-2.1-2-3.1-2.3
								c-2.7-0.9-5.8-0.7-8.3,0.5l-0.8,0.4l-0.3-0.8c-0.7-2.4-2.9-4.2-5.6-4.7c-2.5-0.5-5.3,0.2-7.2,1.8l-0.5,0.4L49,33.8
								c-1.9-1.6-4.7-2.3-7.2-1.8c-2.7,0.6-4.9,2.4-5.6,4.7l-0.3,0.8l-0.8-0.4c-2.5-1.2-5.6-1.4-8.3-0.5c-1,0.3-2.4,1-3.1,2.3
								c-0.9,1.6-0.5,3.6,1,5.4l1.6,1.8L24,45.5c-2.8-0.7-5.8,0.2-7.3,2.3c-1.5,2-1.3,4.7,0.5,6.5L18,55l-1.1,0.4
								c-2.8,1-4.7,3.3-4.9,5.8c-0.2,3.5,3,5.6,3.2,5.7l0.8,0.5l-0.7,0.6c-0.7,0.6-4.1,3.9-3.1,7.2c0.4,1.2,1.2,2.1,1.8,2.8
								c1.5,1.6,3.5,2.9,5.9,3.7l0.8,0.3l-0.4,0.8c-0.3,0.5-1.6,3.1-0.2,5.2c1.6,2.5,6.5,3.7,11.2,1.5l0.8-0.4l0.2,0.9
								c0.2,0.9,1.2,4,4.3,5.2c3.5,1.4,9.2,0.1,12.3-4.5L49.5,89.7z"/>
						</g>
						<g>
							<circle class="st0" cx="64.7" cy="63.7" r="12.6"/>
							<circle cx="64.7" cy="63.7" r="5.4"/>
						</g>
						<g>
							<circle class="st0" cx="34.5" cy="63.7" r="12.6"/>
							<circle cx="34.5" cy="63.7" r="5.4"/>
						</g>
						<g>
							<g>
								<g>
									<g>
										<g>
											<g>
												<path class="st2" d="M88.2,55.6H10.8c-1.1,0-2.1-1.4-2.1-3.2l0,0h81.6l0,0C90.3,54.1,89.4,55.6,88.2,55.6z"/>
												<path d="M88.2,56.5H10.8c-1.7,0-3-1.8-3-4.1v-1h83.6v1C91.3,54.7,90,56.5,88.2,56.5z M9.8,53.4c0.2,0.8,0.7,1.2,1,1.2
													h77.5c0.3,0,0.8-0.5,1-1.2H9.8z"/>
											</g>
											<g>
												<g>
													<path class="st2" d="M17,46.3H8.9l0-16.2c0-1.7,1.4-3,3-3H17V46.3z"/>
													<path d="M18,47.3h-10V33.7c0-4.1,3.4-7.5,7.5-7.5H18V47.3z M9.8,45.4H16V28.1h-0.6c-3.1,0-5.6,2.5-5.6,5.6V45.4z"/>
												</g>
												<g>
													<path class="st2" d="M82,46.3h8.1V30.2c0-1.7-1.4-3-3-3H82V46.3z"/>
													<path d="M91.1,47.3H81V26.2h2.5c4.1,0,7.5,3.4,7.5,7.5V47.3z M83,45.4h6.2V33.7c0-3.1-2.5-5.6-5.6-5.6H83V45.4z"/>
												</g>
											</g>
											<g>
												<g>
													<path class="st2" d="M88,45.4c0-0.3,0-0.5,0-0.8C88,23.4,70.7,6.2,49.5,6.2S11,23.4,11,44.6c0,0.3,0,0.5,0,0.8H88z"/>
													<path d="M88.9,46.4H10.1l0-1.2c0-0.2,0-0.3,0-0.5c0-21.7,17.7-39.4,39.4-39.4s39.4,17.7,39.4,39.4c0,0.2,0,0.3,0,0.5
														L88.9,46.4z M12,44.4h75C86.9,23.8,70.1,7.1,49.5,7.1S12.1,23.8,12,44.4z"/>
												</g>
											</g>
											<g>
												<path class="st2" d="M38.6,7.7v37.7h21.8V7.7c-3.5-1-7.1-1.6-10.9-1.6S42.1,6.7,38.6,7.7z"/>
												<path d="M61.4,46.4H37.6V7l0.7-0.2c7.3-2.1,15.1-2.1,22.3,0L61.4,7V46.4z M39.6,44.4h19.8v-36c-6.5-1.8-13.4-1.8-19.8,0
													V44.4z"/>
											</g>
											<g>
												<path class="st2" d="M95.8,52.6H3.2c-0.2,0-0.3-0.1-0.3-0.3l0-4.7c0-1.4,1.1-2.5,2.5-2.5h88.2c1.4,0,2.5,1.1,2.5,2.5
													v4.7C96.1,52.5,95.9,52.6,95.8,52.6z"/>
												<path d="M94.1,53.6H4.9c-1.6,0-3-1.3-3-3v-1.4c0-2.7,2.2-5,5-5h85.1c2.7,0,5,2.2,5,5v1.4C97,52.3,95.7,53.6,94.1,53.6z
													 M6.9,46.1c-1.7,0-3,1.4-3,3v1.4c0,0.6,0.5,1,1,1h89.1c0.6,0,1-0.5,1-1v-1.4c0-1.7-1.4-3-3-3H6.9z"/>
											</g>
											<g>
												<path class="st2" d="M53.7,27.2h-8.5c-1.4,0-2.5-1.1-2.5-2.5V3.5c0-0.4,0.3-0.7,0.7-0.7h12c0.4,0,0.7,0.3,0.7,0.7v21.2
													C56.3,26,55.1,27.2,53.7,27.2z"/>
												<path d="M50.8,28.1h-2.6c-3.5,0-6.4-2.9-6.4-6.4V4.3c0-1.4,1.2-2.6,2.6-2.6h10.3c1.4,0,2.6,1.2,2.6,2.6v17.4
													C57.2,25.3,54.3,28.1,50.8,28.1z M44.4,3.7c-0.4,0-0.7,0.3-0.7,0.7v17.4c0,2.5,2,4.5,4.5,4.5h2.6c2.5,0,4.5-2,4.5-4.5
													V4.3c0-0.4-0.3-0.7-0.7-0.7H44.4z"/>
											</g>
										</g>
										<g>
											<circle class="st3" cx="49.5" cy="36.4" r="14.9"/>
											<path d="M49.5,52.3c-8.7,0-15.8-7.1-15.8-15.8s7.1-15.8,15.8-15.8s15.8,7.1,15.8,15.8S58.2,52.3,49.5,52.3z M49.5,22.5
												c-7.7,0-13.9,6.2-13.9,13.9s6.2,13.9,13.9,13.9s13.9-6.2,13.9-13.9S57.2,22.5,49.5,22.5z"/>
										</g>
										<g>
											<circle class="st0" cx="49.5" cy="36.4" r="10"/>
											<path d="M49.5,47.4c-6.1,0-11-4.9-11-11s4.9-11,11-11s11,4.9,11,11S55.6,47.4,49.5,47.4z M49.5,27.4
												c-5,0-9.1,4.1-9.1,9.1s4.1,9.1,9.1,9.1s9.1-4.1,9.1-9.1S54.5,27.4,49.5,27.4z"/>
										</g>
									</g>
								</g>
							</g>
						</g>
					</g>
				</g>
			</g>
		</g>
	</g>
</g>
</svg>
