<?xml version="1.0" encoding="utf-8"?>
<!-- Generator: Adobe Illustrator 25.4.1, SVG Export Plug-In . SVG Version: 6.00 Build 0)  -->
<svg version="1.1" baseProfile="basic" id="Layer_1"
	 xmlns="http://www.w3.org/2000/svg" xmlns:xlink="http://www.w3.org/1999/xlink" x="0px" y="0px" viewBox="0 0 19 19"
	 xml:space="preserve">
<g id="Layer_2_00000160882482229312465060000016181118318639590018_">
</g>
<g id="Layer_1_00000126282942442097512330000001591510763998029446_">
	<g>
		<path fill="#FFFFFF" d="M5.44,7.83V5.34h6.81c1.65,0,3.04,1.12,3.45,2.65c0.15,0.54,0.63,0.93,1.19,0.93h0.02
			c0.82,0,1.41-0.78,1.2-1.57c-0.07-0.27-0.16-0.54-0.27-0.8c-0.31-0.72-0.74-1.37-1.3-1.93s-1.21-0.99-1.93-1.3
			C13.87,3,13.07,2.83,12.25,2.83H5.44V0.34c0-0.26-0.3-0.41-0.51-0.25L0.29,3.61c-0.31,0.24-0.31,0.71,0,0.94l4.64,3.52
			C5.14,8.24,5.44,8.09,5.44,7.83z"/>
		<path fill="#FFFFFF" d="M18.71,14.44l-4.64-3.52c-0.21-0.16-0.51-0.01-0.51,0.25v2.49H6.75c-1.65,0-3.04-1.12-3.45-2.65
			c-0.15-0.54-0.63-0.93-1.19-0.93H2.08c-0.82,0-1.41,0.78-1.2,1.57c0.07,0.27,0.16,0.54,0.27,0.8c0.31,0.72,0.74,1.37,1.3,1.93
			s1.21,0.99,1.93,1.3c0.75,0.32,1.54,0.48,2.36,0.48h6.81v2.49c0,0.26,0.3,0.41,0.51,0.25l4.64-3.52
			C19.02,15.15,19.02,14.68,18.71,14.44z"/>
	</g>
</g>
</svg>
