<svg xmlns="http://www.w3.org/2000/svg" xmlns:xlink="http://www.w3.org/1999/xlink" width="23.51" height="23.51" viewBox="0 0 23.51 23.51">
  <defs>
    <clipPath id="clip-path">
      <rect id="Rectangle_375" data-name="Rectangle 375" width="14.837" height="11.493" transform="translate(3243.992 2608.891)" fill="none"/>
    </clipPath>
  </defs>
  <g id="Group_1778" data-name="Group 1778" transform="translate(-3239.656 -2602.883)">
    <g id="Group_1774" data-name="Group 1774">
      <g id="Group_1773" data-name="Group 1773">
        <circle id="Ellipse_3082" data-name="Ellipse 3082" cx="11.755" cy="11.755" r="11.755" transform="translate(3239.656 2602.883)" fill="#545454"/>
      </g>
    </g>
    <g id="Group_1777" data-name="Group 1777">
      <g id="Group_1776" data-name="Group 1776" clip-path="url(#clip-path)">
        <g id="Group_1775" data-name="Group 1775">
          <path id="Path_10598" data-name="Path 10598" d="M3256.552,2609.914a12.225,12.225,0,0,0-3.02-.936.046.046,0,0,0-.049.022c-.13.232-.275.535-.376.773a11.284,11.284,0,0,0-3.392,0,7.8,7.8,0,0,0-.382-.773.047.047,0,0,0-.048-.022,12.187,12.187,0,0,0-3.02.936.055.055,0,0,0-.02.017,12.528,12.528,0,0,0-2.192,8.445.051.051,0,0,0,.019.035,12.317,12.317,0,0,0,3.705,1.873.049.049,0,0,0,.052-.018,8.7,8.7,0,0,0,.758-1.232.047.047,0,0,0-.026-.066,8.135,8.135,0,0,1-1.157-.551.048.048,0,0,1-.005-.079c.078-.059.156-.119.23-.18a.045.045,0,0,1,.048-.007,8.772,8.772,0,0,0,7.457,0,.047.047,0,0,1,.048.006c.074.061.152.122.231.181a.048.048,0,0,1-.005.079,7.618,7.618,0,0,1-1.157.551.048.048,0,0,0-.026.066,9.956,9.956,0,0,0,.758,1.232.048.048,0,0,0,.052.018,12.259,12.259,0,0,0,3.71-1.873.045.045,0,0,0,.02-.034,12.438,12.438,0,0,0-2.194-8.445A.042.042,0,0,0,3256.552,2609.914Zm-7.6,6.777a1.505,1.505,0,0,1,0-2.991,1.505,1.505,0,0,1,0,2.991Zm4.93,0a1.505,1.505,0,0,1,0-2.991,1.505,1.505,0,0,1,0,2.991Z"/>
        </g>
      </g>
    </g>
  </g>
</svg>
