<?xml version="1.0" encoding="utf-8"?>
<!-- Generator: Adobe Illustrator 25.4.1, SVG Export Plug-In . SVG Version: 6.00 Build 0)  -->
<svg version="1.1" baseProfile="basic" id="Layer_1"
	 xmlns="http://www.w3.org/2000/svg" xmlns:xlink="http://www.w3.org/1999/xlink" x="0px" y="0px" viewBox="0 0 19 19"
	 xml:space="preserve">
<g id="Layer_2_00000071540300718620755670000017887676875151412645_">
</g>
<g id="Layer_1_00000038406432158962823680000007311805500862745276_">
	<path fill="#FFFFFF" d="M13.29,7.81l1.77,1.77l2.97-2.97c1.21-1.21,1.21-3.18,0-4.39s-3.18-1.21-4.39,0l-2.97,2.97l1.77,1.77
		L9.69,9.7L8.22,8.22v-3.7c0-0.16-0.06-0.31-0.18-0.43L5.05,1.1c-0.24-0.24-0.62-0.24-0.85,0c-0.24,0.24-0.24,0.62,0,0.85l2.81,2.81
		v2.25L3.07,3.08c-0.24-0.24-0.62-0.24-0.85,0c-0.24,0.24-0.24,0.62,0,0.85l3.94,3.94H3.91L1.1,5.06c-0.24-0.24-0.62-0.24-0.85,0
		c-0.24,0.24-0.24,0.62,0,0.85L3.24,8.9C3.35,9.01,3.5,9.07,3.66,9.07h3.7l1.48,1.48l-1.96,1.96l-2.87,0.04
		c-0.6,0.01-1.11,0.36-1.34,0.92s-0.1,1.17,0.32,1.59l2.19,2.19c0.42,0.43,1.03,0.55,1.59,0.32s0.91-0.74,0.92-1.34l0.04-2.87
		l1.96-1.96l2.35,2.35l0.04,2.87c0.01,0.39,0.16,0.75,0.42,1.01c0.14,0.14,0.3,0.25,0.49,0.33c0.56,0.23,1.17,0.1,1.59-0.32
		l2.19-2.19c0.42-0.42,0.55-1.03,0.32-1.59s-0.74-0.91-1.34-0.92L12.9,12.9l-2.35-2.35L13.29,7.81z M6.49,16.22
		c0,0.15-0.1,0.22-0.16,0.24s-0.18,0.05-0.29-0.06l-2.19-2.19c-0.11-0.11-0.08-0.23-0.06-0.29s0.09-0.16,0.24-0.16l2.5-0.03
		L6.49,16.22z M15.75,14.14c0.08,0,0.14,0.03,0.18,0.07c0.03,0.03,0.05,0.07,0.06,0.09c0.02,0.06,0.05,0.18-0.06,0.29l-2.19,2.19
		c-0.11,0.11-0.22,0.08-0.29,0.06c-0.06-0.02-0.16-0.09-0.16-0.24l-0.03-2.5L15.75,14.14z"/>
</g>
</svg>
