<svg xmlns="http://www.w3.org/2000/svg" width="201.662" height="153.67" viewBox="0 0 201.662 153.67">
  <g id="Group_1822" data-name="Group 1822" transform="translate(-4360.551 -2104.949)">
    <g id="Group_1821" data-name="Group 1821">
      <g id="Group_1819" data-name="Group 1819">
        <path id="Path_10625" data-name="Path 10625" d="M4431.29,2165.189a3.39,3.39,0,0,0-3.391-3.39H4394a3.39,3.39,0,0,0-3.391,3.39v10.171h40.685Z" fill="#41378c" stroke="#000" stroke-miterlimit="10" stroke-width="5"/>
        <path id="Path_10626" data-name="Path 10626" d="M4532.158,2165.189a3.39,3.39,0,0,0-3.39-3.39h-33.9a3.39,3.39,0,0,0-3.39,3.39v10.171h40.684Z" fill="#41378c" stroke="#000" stroke-miterlimit="10" stroke-width="5"/>
      </g>
      <g id="Group_1820" data-name="Group 1820">
        <path id="Path_10627" data-name="Path 10627" d="M4559.7,2213.74a41.544,41.544,0,0,1-40.684,42.379,40.8,40.8,0,0,1-38.31-28.252h-38.65a42.276,42.276,0,0,1-15.6,20.977,39.613,39.613,0,0,1-19.326,7.12c-1.119.107-2.238.142-3.39.142a42.408,42.408,0,0,1,0-84.746h115.272A41.545,41.545,0,0,1,4559.7,2213.74Z" fill="#827ddc" stroke="#000" stroke-linejoin="round" stroke-width="5"/>
        <path id="Path_10628" data-name="Path 10628" d="M4410.526,2191.7h-13.561v13.562H4383.4v13.561h13.562v13.562h13.561v-13.562h13.562v-13.561h-13.562Z" fill="#73c8f0" stroke="#000" stroke-linejoin="round" stroke-width="3"/>
        <g id="Path_10629" data-name="Path 10629" fill="#ffa50a" stroke-linejoin="round">
          <path d="M 4519.01806640625 2203.373046875 C 4514.45166015625 2203.373046875 4510.73681640625 2199.65869140625 4510.73681640625 2195.093017578125 C 4510.73681640625 2190.52685546875 4514.45166015625 2186.81201171875 4519.01806640625 2186.81201171875 C 4523.583984375 2186.81201171875 4527.298828125 2190.52685546875 4527.298828125 2195.093017578125 C 4527.298828125 2199.65869140625 4523.583984375 2203.373046875 4519.01806640625 2203.373046875 Z" stroke="none"/>
          <path d="M 4519.01806640625 2201.873046875 C 4522.76318359375 2201.873046875 4525.798828125 2198.8369140625 4525.798828125 2195.093017578125 C 4525.798828125 2191.347900390625 4522.76318359375 2188.31201171875 4519.01806640625 2188.31201171875 C 4515.27294921875 2188.31201171875 4512.23681640625 2191.347900390625 4512.23681640625 2195.093017578125 C 4512.23681640625 2198.8369140625 4515.27294921875 2201.873046875 4519.01806640625 2201.873046875 M 4519.01806640625 2204.873046875 C 4513.62451171875 2204.873046875 4509.23681640625 2200.48583984375 4509.23681640625 2195.093017578125 C 4509.23681640625 2189.69970703125 4513.62451171875 2185.31201171875 4519.01806640625 2185.31201171875 C 4524.4111328125 2185.31201171875 4528.798828125 2189.69970703125 4528.798828125 2195.093017578125 C 4528.798828125 2200.48583984375 4524.4111328125 2204.873046875 4519.01806640625 2204.873046875 Z" stroke="none" fill="#000"/>
        </g>
        <g id="Path_10630" data-name="Path 10630" fill="#ffa50a" stroke-linejoin="round">
          <path d="M 4535.97021484375 2220.324951171875 C 4531.40380859375 2220.324951171875 4527.68896484375 2216.610595703125 4527.68896484375 2212.044921875 C 4527.68896484375 2207.478759765625 4531.40380859375 2203.763916015625 4535.97021484375 2203.763916015625 C 4540.5361328125 2203.763916015625 4544.2509765625 2207.478759765625 4544.2509765625 2212.044921875 C 4544.2509765625 2216.610595703125 4540.5361328125 2220.324951171875 4535.97021484375 2220.324951171875 Z" stroke="none"/>
          <path d="M 4535.97021484375 2218.824951171875 C 4539.7138671875 2218.824951171875 4542.7509765625 2215.7890625 4542.7509765625 2212.044921875 C 4542.7509765625 2208.300048828125 4539.7138671875 2205.263916015625 4535.97021484375 2205.263916015625 C 4532.22509765625 2205.263916015625 4529.18896484375 2208.300048828125 4529.18896484375 2212.044921875 C 4529.18896484375 2215.7890625 4532.22509765625 2218.824951171875 4535.97021484375 2218.824951171875 M 4535.97021484375 2221.824951171875 C 4530.57666015625 2221.824951171875 4526.18896484375 2217.437744140625 4526.18896484375 2212.044921875 C 4526.18896484375 2206.651611328125 4530.57666015625 2202.263916015625 4535.97021484375 2202.263916015625 C 4541.36328125 2202.263916015625 4545.7509765625 2206.651611328125 4545.7509765625 2212.044921875 C 4545.7509765625 2217.437744140625 4541.36328125 2221.824951171875 4535.97021484375 2221.824951171875 Z" stroke="none" fill="#000"/>
        </g>
        <g id="Path_10631" data-name="Path 10631" fill="#ffa50a" stroke-linejoin="round">
          <path d="M 4519.01806640625 2237.277099609375 C 4514.45166015625 2237.277099609375 4510.73681640625 2233.562255859375 4510.73681640625 2228.99609375 C 4510.73681640625 2224.430419921875 4514.45166015625 2220.716064453125 4519.01806640625 2220.716064453125 C 4523.583984375 2220.716064453125 4527.298828125 2224.430419921875 4527.298828125 2228.99609375 C 4527.298828125 2233.562255859375 4523.583984375 2237.277099609375 4519.01806640625 2237.277099609375 Z" stroke="none"/>
          <path d="M 4519.01806640625 2222.216064453125 C 4515.27294921875 2222.216064453125 4512.23681640625 2225.251953125 4512.23681640625 2228.99609375 C 4512.23681640625 2232.740966796875 4515.27294921875 2235.777099609375 4519.01806640625 2235.777099609375 C 4522.76318359375 2235.777099609375 4525.798828125 2232.740966796875 4525.798828125 2228.99609375 C 4525.798828125 2225.251953125 4522.76318359375 2222.216064453125 4519.01806640625 2222.216064453125 M 4519.01806640625 2219.216064453125 C 4524.4111328125 2219.216064453125 4528.798828125 2223.603271484375 4528.798828125 2228.99609375 C 4528.798828125 2234.389404296875 4524.4111328125 2238.777099609375 4519.01806640625 2238.777099609375 C 4513.62451171875 2238.777099609375 4509.23681640625 2234.389404296875 4509.23681640625 2228.99609375 C 4509.23681640625 2223.603271484375 4513.62451171875 2219.216064453125 4519.01806640625 2219.216064453125 Z" stroke="none" fill="#000"/>
        </g>
        <g id="Path_10632" data-name="Path 10632" fill="#ffa50a" stroke-linejoin="round">
          <path d="M 4502.06591796875 2220.324951171875 C 4497.5 2220.324951171875 4493.78515625 2216.610595703125 4493.78515625 2212.044921875 C 4493.78515625 2207.478759765625 4497.5 2203.763916015625 4502.06591796875 2203.763916015625 C 4506.63232421875 2203.763916015625 4510.34716796875 2207.478759765625 4510.34716796875 2212.044921875 C 4510.34716796875 2216.610595703125 4506.63232421875 2220.324951171875 4502.06591796875 2220.324951171875 Z" stroke="none"/>
          <path d="M 4502.06591796875 2218.824951171875 C 4505.81103515625 2218.824951171875 4508.84716796875 2215.7890625 4508.84716796875 2212.044921875 C 4508.84716796875 2208.300048828125 4505.81103515625 2205.263916015625 4502.06591796875 2205.263916015625 C 4498.32177734375 2205.263916015625 4495.28515625 2208.300048828125 4495.28515625 2212.044921875 C 4495.28515625 2215.7890625 4498.32177734375 2218.824951171875 4502.06591796875 2218.824951171875 M 4502.06591796875 2221.824951171875 C 4496.6728515625 2221.824951171875 4492.28515625 2217.437744140625 4492.28515625 2212.044921875 C 4492.28515625 2206.651611328125 4496.6728515625 2202.263916015625 4502.06591796875 2202.263916015625 C 4507.45947265625 2202.263916015625 4511.84716796875 2206.651611328125 4511.84716796875 2212.044921875 C 4511.84716796875 2217.437744140625 4507.45947265625 2221.824951171875 4502.06591796875 2221.824951171875 Z" stroke="none" fill="#000"/>
        </g>
        <g id="Path_10633" data-name="Path 10633" fill="#faf300" stroke-linejoin="round">
          <path d="M 4456.10107421875 2210.154052734375 L 4454.60107421875 2210.154052734375 L 4441.0400390625 2210.154052734375 L 4439.5400390625 2210.154052734375 L 4439.5400390625 2208.654052734375 L 4439.5400390625 2201.873046875 L 4439.5400390625 2200.373046875 L 4441.0400390625 2200.373046875 L 4454.60107421875 2200.373046875 L 4456.10107421875 2200.373046875 L 4456.10107421875 2201.873046875 L 4456.10107421875 2208.654052734375 L 4456.10107421875 2210.154052734375 Z" stroke="none"/>
          <path d="M 4441.0400390625 2201.873046875 L 4441.0400390625 2208.654052734375 L 4454.60107421875 2208.654052734375 L 4454.60107421875 2201.873046875 L 4441.0400390625 2201.873046875 M 4441.0400390625 2198.873046875 L 4454.60107421875 2198.873046875 C 4456.2578125 2198.873046875 4457.60107421875 2200.21630859375 4457.60107421875 2201.873046875 L 4457.60107421875 2208.654052734375 C 4457.60107421875 2210.310791015625 4456.2578125 2211.654052734375 4454.60107421875 2211.654052734375 L 4441.0400390625 2211.654052734375 C 4439.38330078125 2211.654052734375 4438.0400390625 2210.310791015625 4438.0400390625 2208.654052734375 L 4438.0400390625 2201.873046875 C 4438.0400390625 2200.21630859375 4439.38330078125 2198.873046875 4441.0400390625 2198.873046875 Z" stroke="none" fill="#000"/>
        </g>
        <g id="Path_10634" data-name="Path 10634" fill="#faf300" stroke-linejoin="round">
          <path d="M 4483.22412109375 2210.154052734375 L 4481.72412109375 2210.154052734375 L 4468.1630859375 2210.154052734375 L 4466.6630859375 2210.154052734375 L 4466.6630859375 2208.654052734375 L 4466.6630859375 2201.873046875 L 4466.6630859375 2200.373046875 L 4468.1630859375 2200.373046875 L 4481.72412109375 2200.373046875 L 4483.22412109375 2200.373046875 L 4483.22412109375 2201.873046875 L 4483.22412109375 2208.654052734375 L 4483.22412109375 2210.154052734375 Z" stroke="none"/>
          <path d="M 4468.1630859375 2201.873046875 L 4468.1630859375 2208.654052734375 L 4481.72412109375 2208.654052734375 L 4481.72412109375 2201.873046875 L 4468.1630859375 2201.873046875 M 4468.1630859375 2198.873046875 L 4481.72412109375 2198.873046875 C 4483.380859375 2198.873046875 4484.72412109375 2200.21630859375 4484.72412109375 2201.873046875 L 4484.72412109375 2208.654052734375 C 4484.72412109375 2210.310791015625 4483.380859375 2211.654052734375 4481.72412109375 2211.654052734375 L 4468.1630859375 2211.654052734375 C 4466.50634765625 2211.654052734375 4465.1630859375 2210.310791015625 4465.1630859375 2208.654052734375 L 4465.1630859375 2201.873046875 C 4465.1630859375 2200.21630859375 4466.50634765625 2198.873046875 4468.1630859375 2198.873046875 Z" stroke="none" fill="#000"/>
        </g>
      </g>
    </g>
    <rect id="Rectangle_392" data-name="Rectangle 392" width="10.102" height="63.911" transform="translate(4456.331 2107.449)" fill="#ffa50a" stroke="#000" stroke-linejoin="round" stroke-width="5"/>
    <rect id="Rectangle_393" data-name="Rectangle 393" width="16.732" height="7.348" transform="translate(4453.016 2164.012)" fill="#827ddc" stroke="#000" stroke-linejoin="round" stroke-width="5"/>
  </g>
</svg>
