<svg xmlns="http://www.w3.org/2000/svg" width="24.519" height="24.519" viewBox="0 0 24.519 24.519">
  <path id="Path_10599" data-name="Path 10599" d="M3129.489,2670.108a12.259,12.259,0,1,1,12.259-12.26A12.274,12.274,0,0,1,3129.489,2670.108Zm.731-7.383a.181.181,0,0,0-.124.05.178.178,0,0,0-.053.127v5.835a.178.178,0,0,0,.066.139.181.181,0,0,0,.111.038.164.164,0,0,0,.039,0c1.865-.424,3.576-2.42,4.577-5.339a.174.174,0,0,0-.012-.141.177.177,0,0,0-.111-.088,20.754,20.754,0,0,0-4.488-.617Zm-1.468,0a20.672,20.672,0,0,0-4.487.617.18.18,0,0,0-.112.088.176.176,0,0,0-.011.141c1,2.918,2.712,4.914,4.577,5.338a.164.164,0,0,0,.039,0,.175.175,0,0,0,.11-.038.179.179,0,0,0,.067-.139V2662.9a.183.183,0,0,0-.054-.128.177.177,0,0,0-.123-.05Zm-5.867,1.048a.18.18,0,0,0-.06.01,11.95,11.95,0,0,0-1.9.873.177.177,0,0,0-.085.122.175.175,0,0,0,.037.144,11.269,11.269,0,0,0,3.987,3.068.176.176,0,0,0,.074.016.176.176,0,0,0,.137-.288,12.157,12.157,0,0,1-2.019-3.824.172.172,0,0,0-.091-.1A.17.17,0,0,0,3122.885,2663.774Zm13.208,0a.17.17,0,0,0-.077.018.176.176,0,0,0-.091.1,12.15,12.15,0,0,1-2.02,3.826.177.177,0,0,0,0,.22.179.179,0,0,0,.14.068.177.177,0,0,0,.074-.016,11.26,11.26,0,0,0,3.987-3.068.179.179,0,0,0-.048-.266,11.829,11.829,0,0,0-1.9-.874A.175.175,0,0,0,3136.093,2663.772Zm.928-5.37a.177.177,0,0,0-.177.171,19.632,19.632,0,0,1-.522,3.933.178.178,0,0,0,.113.209,12.961,12.961,0,0,1,2.294,1.055.178.178,0,0,0,.091.025.176.176,0,0,0,.15-.084,11.125,11.125,0,0,0,1.643-5.12.176.176,0,0,0-.176-.189Zm-18.48,0a.183.183,0,0,0-.13.056.181.181,0,0,0-.047.133,11.141,11.141,0,0,0,1.643,5.119.176.176,0,0,0,.15.084.18.18,0,0,0,.091-.025,13.006,13.006,0,0,1,2.295-1.054.177.177,0,0,0,.113-.208,19.651,19.651,0,0,1-.523-3.934.177.177,0,0,0-.176-.171Zm4.88,0a.178.178,0,0,0-.177.184,18.171,18.171,0,0,0,.487,3.572.177.177,0,0,0,.081.11.185.185,0,0,0,.091.025.177.177,0,0,0,.045-.006,21.785,21.785,0,0,1,4.815-.67.176.176,0,0,0,.172-.176v-2.862a.177.177,0,0,0-.177-.177Zm6.8,0a.177.177,0,0,0-.177.177v2.862a.176.176,0,0,0,.171.176,21.72,21.72,0,0,1,4.816.67.234.234,0,0,0,.045,0,.176.176,0,0,0,.172-.135,18.28,18.28,0,0,0,.487-3.571.172.172,0,0,0-.05-.129.176.176,0,0,0-.127-.055Zm8.6-6.5a.178.178,0,0,0-.091.025,13.028,13.028,0,0,1-2.294,1.055.178.178,0,0,0-.113.209,19.632,19.632,0,0,1,.522,3.932.177.177,0,0,0,.177.172h3.416a.176.176,0,0,0,.176-.189,11.123,11.123,0,0,0-1.643-5.12A.175.175,0,0,0,3138.82,2651.9Zm-3.745,1.5a.176.176,0,0,0-.045,0,21.655,21.655,0,0,1-4.816.669.177.177,0,0,0-.171.177v2.862a.177.177,0,0,0,.177.177h5.337a.176.176,0,0,0,.127-.055.172.172,0,0,0,.05-.129,18.277,18.277,0,0,0-.487-3.571.176.176,0,0,0-.172-.135Zm-11.172,0a.176.176,0,0,0-.172.135,18.158,18.158,0,0,0-.487,3.572.178.178,0,0,0,.177.184h5.337a.177.177,0,0,0,.177-.177v-2.862a.178.178,0,0,0-.172-.177,21.728,21.728,0,0,1-4.815-.669A.177.177,0,0,0,3123.9,2653.4Zm-3.746-1.5a.176.176,0,0,0-.15.084,11.136,11.136,0,0,0-1.643,5.119.181.181,0,0,0,.047.133.183.183,0,0,0,.13.056h3.416a.177.177,0,0,0,.176-.172,19.651,19.651,0,0,1,.523-3.933.177.177,0,0,0-.113-.208,13.011,13.011,0,0,1-2.295-1.054A.178.178,0,0,0,3120.157,2651.9Zm10.063-5.121a.181.181,0,0,0-.111.039.178.178,0,0,0-.066.138v5.836a.175.175,0,0,0,.177.177h.005a20.677,20.677,0,0,0,4.488-.618.177.177,0,0,0,.123-.228c-1-2.919-2.712-4.915-4.577-5.339A.165.165,0,0,0,3130.22,2646.782Zm-1.462,0a.165.165,0,0,0-.039.005c-1.865.424-3.576,2.42-4.577,5.338a.177.177,0,0,0,.011.141.18.18,0,0,0,.112.088,20.689,20.689,0,0,0,4.487.618h.006a.177.177,0,0,0,.123-.05.182.182,0,0,0,.054-.127v-5.836a.179.179,0,0,0-.067-.138A.175.175,0,0,0,3128.758,2646.782Zm5.284.908a.179.179,0,0,0-.14.068.177.177,0,0,0,0,.22,12.15,12.15,0,0,1,2.02,3.826.176.176,0,0,0,.091.1.17.17,0,0,0,.077.018.181.181,0,0,0,.06-.011,11.77,11.77,0,0,0,1.9-.875.177.177,0,0,0,.048-.265,11.26,11.26,0,0,0-3.987-3.068A.177.177,0,0,0,3134.042,2647.69Zm-9.107,0a.176.176,0,0,0-.074.016,11.269,11.269,0,0,0-3.987,3.068.175.175,0,0,0-.037.144.177.177,0,0,0,.085.122,11.86,11.86,0,0,0,1.9.872.181.181,0,0,0,.06.011.17.17,0,0,0,.077-.018.175.175,0,0,0,.091-.1,12.157,12.157,0,0,1,2.019-3.824.176.176,0,0,0-.137-.288Z" transform="translate(-3117.229 -2645.589)" fill="#fff"/>
</svg>
