<svg xmlns="http://www.w3.org/2000/svg" width="195.39" height="53.754" viewBox="0 0 195.39 53.754">
  <g id="Group_938" data-name="Group 938" transform="translate(-3517.336 -2213.347)" opacity="0.4">
    <path id="Path_8192" data-name="Path 8192" d="M3544.142,2213.347a26.877,26.877,0,1,1-26.806,26.876A26.849,26.849,0,0,1,3544.142,2213.347Zm-20.421,40.911a1.044,1.044,0,0,0,.281.631,22.272,22.272,0,0,0,3.649,4.07,21.744,21.744,0,0,0,1.965,1.614,29.188,29.188,0,0,0,6.245,3.228,26.151,26.151,0,0,0,5.614,1.334,19.282,19.282,0,0,0,4.491,0,11.389,11.389,0,0,0,2.6-.491c.14.07.21-.071.28-.071a22.613,22.613,0,0,0,5.123-1.543,24.8,24.8,0,0,0,14.666-26.456,25.061,25.061,0,0,0-23.227-21.192,22.66,22.66,0,0,0-8.912,1.193,25.01,25.01,0,0,0-17.263,23.157,20.592,20.592,0,0,0,.281,4.14,23.668,23.668,0,0,0,3.088,8.912C3523.02,2253.205,3523.3,2253.767,3523.721,2254.258Z" fill="#aaacbd" fill-rule="evenodd"/>
    <path id="Path_8193" data-name="Path 8193" d="M3548.563,2264.573a6.837,6.837,0,0,1-2.6.492,19.269,19.269,0,0,1-4.491,0,26.151,26.151,0,0,1-5.614-1.334,29.266,29.266,0,0,1-6.245-3.228,21.744,21.744,0,0,1-1.965-1.614,22.311,22.311,0,0,1-3.649-4.07,1.265,1.265,0,0,1-.281-.631,36.385,36.385,0,0,0,2.667-11.86,52.17,52.17,0,0,1,.561-5.684,10.954,10.954,0,0,1,2.737-5.824,13.105,13.105,0,0,1,5.053-3.158,14.493,14.493,0,0,1,4.912-1.263,17.611,17.611,0,0,1,4.7.491,33.935,33.935,0,0,1,6.807,2.316c1.754.7,3.579,1.4,5.4,1.965a16.951,16.951,0,0,1,5.4,2.386,4.661,4.661,0,0,1,1.684,5.894,11.662,11.662,0,0,1-2.667,3.72c-1.894,1.964-3.929,3.789-5.754,5.824a33.446,33.446,0,0,0-5.333,7.929,13.2,13.2,0,0,0-1.333,7.649Zm13.543-23.087a.255.255,0,0,0-.21.071.151.151,0,0,0-.141.14v.07a.152.152,0,0,0,.141-.14l.21-.141Zm-21.473-12.21a4.807,4.807,0,0,0-.07,9.614,4.9,4.9,0,0,0,4.842-4.842,4.732,4.732,0,0,0-4.772-4.772Zm3.93,14.737a3.96,3.96,0,0,0,2.1,1.473,10.388,10.388,0,0,0,5.474.281,24.4,24.4,0,0,0,8.982-3.579c.14-.14.421-.14.491-.421-.14-.07-.211,0-.281.07a21.654,21.654,0,0,1-2.877,1.4,23.836,23.836,0,0,1-8,1.894A9.614,9.614,0,0,1,3544.563,2244.013Zm13.263-4.141a1.094,1.094,0,0,0,1.052-1.122,1,1,0,0,0-1.123-.983,1.02,1.02,0,0,0-.982,1.053A1,1,0,0,0,3557.826,2239.872Z" fill="#a9abbc" fill-rule="evenodd"/>
    <path id="Path_8194" data-name="Path 8194" d="M3544.282,2226.89a21.042,21.042,0,0,0-4.7-.491,14.936,14.936,0,0,0-4.913,1.263,13.1,13.1,0,0,0-5.052,3.158,10.492,10.492,0,0,0-2.737,5.824c-.28,1.9-.351,3.79-.561,5.684a36.011,36.011,0,0,1-2.667,11.86,5.473,5.473,0,0,1-1.052-1.544,23.676,23.676,0,0,1-3.088-8.912,20.6,20.6,0,0,1-.281-4.14,24.773,24.773,0,0,1,5.544-15.087,24.431,24.431,0,0,1,11.719-8.07,25.544,25.544,0,0,1,8.912-1.193,24.847,24.847,0,0,1,20.841,36,24.088,24.088,0,0,1-12.28,11.579,20.658,20.658,0,0,1-5.123,1.544c-.14,0-.21.21-.28.07a13.738,13.738,0,0,1,1.263-7.649,33.451,33.451,0,0,1,5.333-7.929c1.754-2.035,3.789-3.93,5.754-5.825a10.7,10.7,0,0,0,2.667-3.719,4.516,4.516,0,0,0-1.684-5.9,16.971,16.971,0,0,0-5.4-2.385c-1.824-.562-3.649-1.264-5.4-1.965a3.582,3.582,0,0,0-2.316-2.386A8.919,8.919,0,0,0,3544.282,2226.89Zm22.947,14.947h.14a11.243,11.243,0,0,0,.281-3.087,20.67,20.67,0,0,0-.351-3.579,20.109,20.109,0,0,0-5.263-10.1,59.234,59.234,0,0,0-5.474-4.772,14.561,14.561,0,0,0-5.613-3.017,14.912,14.912,0,0,0-6.1-.421c-.141,0-.281,0-.281.14s.14.14.281.14a48.4,48.4,0,0,1,8.912,2.667,14.773,14.773,0,0,1,6.947,5.263,39.449,39.449,0,0,1,3.228,5.544,38.637,38.637,0,0,1,2.666,8.21A29.3,29.3,0,0,1,3567.229,2241.837Z" fill="#daddec" fill-rule="evenodd"/>
    <path id="Path_8195" data-name="Path 8195" d="M3540.633,2229.276a4.777,4.777,0,0,1,4.772,4.772h0a4.9,4.9,0,0,1-4.842,4.842,4.807,4.807,0,0,1,.07-9.614Zm3.368,4.842a3.368,3.368,0,1,0-3.438,3.369h.07a3.414,3.414,0,0,0,3.368-3.369Z" fill="#fbfcfa" fill-rule="evenodd"/>
    <path id="Path_8196" data-name="Path 8196" d="M3544.563,2244.013a10.189,10.189,0,0,0,5.894,1.193,22.275,22.275,0,0,0,8-1.9,21.684,21.684,0,0,0,2.877-1.4c.07-.07.141-.14.281-.07-.07.211-.281.281-.491.421a24.379,24.379,0,0,1-8.982,3.579,10.347,10.347,0,0,1-5.474-.281,4.145,4.145,0,0,1-2.1-1.543Zm-.281-17.123a7.032,7.032,0,0,1,4.491,0,3.582,3.582,0,0,1,2.316,2.386A28.035,28.035,0,0,0,3544.282,2226.89Z" fill="#7f8192" fill-rule="evenodd"/>
    <path id="Path_8197" data-name="Path 8197" d="M3557.826,2239.872a1.079,1.079,0,0,1-1.053-1.052,1.02,1.02,0,0,1,.982-1.053,1.054,1.054,0,1,1,.071,2.1Z" fill="#fbfcfa" fill-rule="evenodd"/>
    <path id="Path_8198" data-name="Path 8198" d="M3561.9,2241.627a.152.152,0,0,1-.141.14h0c0-.14.07-.21.141-.14Zm.21-.141-.21.141-.071-.07a.529.529,0,0,1,.281-.071Z" fill="#a9abbc" fill-rule="evenodd"/>
    <path id="Path_8199" data-name="Path 8199" d="M3562.106,2241.486Z" fill="#a9abbc" fill-rule="evenodd"/>
    <path id="Path_8200" data-name="Path 8200" d="M3567.229,2241.837c-.211-.982-.421-1.894-.562-2.877a40.088,40.088,0,0,0-2.666-8.21,29.307,29.307,0,0,0-3.228-5.544,14.433,14.433,0,0,0-6.947-5.263,44.812,44.812,0,0,0-8.912-2.666c-.141,0-.281,0-.281-.141s.14-.14.281-.14a13.888,13.888,0,0,1,6.1.421,15.572,15.572,0,0,1,5.614,3.017,59.313,59.313,0,0,1,5.473,4.772,20.111,20.111,0,0,1,5.263,10.1,20.548,20.548,0,0,1,.351,3.579,11.767,11.767,0,0,1-.281,3.088Z" fill="#fffdfb" fill-rule="evenodd"/>
    <path id="Path_8201" data-name="Path 8201" d="M3544,2234.118a3.355,3.355,0,0,1-3.3,3.369h-.07a3.37,3.37,0,0,1-3.368-3.369v-.07a3.369,3.369,0,0,1,3.368-3.368,3.43,3.43,0,0,1,3.368,3.438Z" fill="#7f8192" fill-rule="evenodd"/>
    <path id="Path_8202" data-name="Path 8202" d="M3650.454,2247.662c-.07.07-.14.07-.21.14-2.176,2.456-4.913,2.877-7.86,2.1-3.649-.912-5.614-3.508-6.386-7.087a11.294,11.294,0,0,1,.562-6.807,8.653,8.653,0,0,1,9.4-5.4,8.248,8.248,0,0,1,4.982,2.315,6.81,6.81,0,0,1,1.755,3.719c.07.281-.071.351-.281.351h-2.6c-.211,0-.281-.07-.351-.28a4.1,4.1,0,0,0-3.509-3.3,5.114,5.114,0,0,0-5.333,1.685,8.213,8.213,0,0,0-1.614,5.4,9.179,9.179,0,0,0,.912,4.14,5.684,5.684,0,0,0,7.859,2.176,4.735,4.735,0,0,0,2.176-4.07c0-.351-.211-.281-.421-.281h-4.14c-.421,0-.492-.141-.492-.491v-1.614c0-.351.141-.421.421-.421h7.228c.281,0,.421.07.421.35v9.193c0,.281-.07.351-.351.351a4.417,4.417,0,0,1-1.684-.07c-.421-.281-.28-.983-.421-1.544C3650.524,2248.012,3650.454,2247.8,3650.454,2247.662ZM3594.877,2237h-1.333c-.281,0-.351-.07-.421-.351a4.25,4.25,0,0,0-3.86-3.368A5,5,0,0,0,3584,2235.8a9.122,9.122,0,0,0,.07,9.263,5.071,5.071,0,0,0,5.825,2.316c1.965-.561,2.877-2.035,3.3-3.93.14-.772.14-.772.912-.772h2.1c.281,0,.351.071.281.351a7.577,7.577,0,0,1-6.386,7.158,8.835,8.835,0,0,1-10.456-7.649,12.312,12.312,0,0,1,.772-6.737,9,9,0,0,1,14.245-2.807,6.809,6.809,0,0,1,1.755,3.72c.07.28,0,.35-.281.35A3.737,3.737,0,0,0,3594.877,2237Zm103.3,12.772H3694.8a.468.468,0,0,1-.491-.351c-1.193-1.965-2.456-3.86-3.649-5.824-.21-.351-.28-.351-.631-.071a3.321,3.321,0,0,0-1.474,3.439,14.393,14.393,0,0,1,0,2.456c0,.351-.14.421-.421.421h-2.1c-.351,0-.421-.14-.421-.491v-17.824c0-.491.14-.632.631-.562a8.451,8.451,0,0,0,1.9,0c.421,0,.491.141.491.492v10.034l.141.071c.21-.281.491-.562.7-.843,1.4-1.473,2.807-2.877,4.281-4.35a.708.708,0,0,1,.491-.281h3.368c0,.211-.21.281-.28.421-1.474,1.4-2.877,2.807-4.421,4.21-.351.281-.351.492-.07.913l5.052,7.578c0,.211.14.351.281.562Zm-34.666-6.035h-4.561c-.351,0-.421.07-.421.421a3.691,3.691,0,0,0,5.193,3.368,2.7,2.7,0,0,0,1.544-1.614.585.585,0,0,1,.631-.421h1.965c.351,0,.421.07.281.421a5.62,5.62,0,0,1-4.983,4.141,6.488,6.488,0,0,1-5.964-1.825,7.068,7.068,0,0,1-1.755-4.351,7.892,7.892,0,0,1,1.4-5.543,6.436,6.436,0,0,1,11.368,2.245,7.512,7.512,0,0,1,.281,2.807c0,.351-.141.421-.422.421C3666.594,2243.732,3665.05,2243.732,3663.506,2243.732Zm-1.473-1.965h3.087c.351,0,.421-.07.351-.421a3.6,3.6,0,0,0-3.368-3.228,3.451,3.451,0,0,0-3.579,3.088c-.07.351,0,.491.421.491,1.053.07,2.035.07,3.088.07Zm-63.507,1.193a10.981,10.981,0,0,1,.351-2.6,6.371,6.371,0,0,1,6.736-4.562c2.457.141,4.492.983,5.684,3.158a8.083,8.083,0,0,1-.07,8.07c-1.333,2.456-3.649,3.228-6.315,3.088C3600.912,2249.907,3598.526,2247.17,3598.526,2242.96Zm3.017,0a5.254,5.254,0,0,0,.913,3.228,3.529,3.529,0,0,0,4.912.982,5.993,5.993,0,0,0,.982-.912,6.241,6.241,0,0,0,0-6.526,3.574,3.574,0,0,0-5.965.07A5.485,5.485,0,0,0,3601.543,2242.96Zm97.4.07a7.319,7.319,0,0,1,1.754-5.193,6.445,6.445,0,0,1,5.123-2.1,6.684,6.684,0,0,1,5.192,2.1,7.746,7.746,0,0,1,1.685,5.9,8.036,8.036,0,0,1-.492,2.245,6.9,6.9,0,0,1-13.192-2.385c0-.141-.07-.421-.07-.562Zm10.736.141a6.9,6.9,0,0,0-.842-3.439,3.536,3.536,0,0,0-4.912-1.053,3.77,3.77,0,0,0-1.053,1.053,6.305,6.305,0,0,0,0,6.386,3.53,3.53,0,0,0,4.912.982,3.263,3.263,0,0,0,.983-.982A4.845,4.845,0,0,0,3709.68,2243.171Zm-85.751-5.123a5.874,5.874,0,0,1,3.157-2.175,5.474,5.474,0,0,1,3.509.28,4.078,4.078,0,0,1,2.456,3.93c.07,3.088,0,6.175,0,9.263,0,.351-.07.421-.421.421h-2.1c-.351,0-.491-.07-.491-.491v-7.86a5.952,5.952,0,0,0-.211-1.614c-.421-1.4-1.754-1.965-3.368-1.544a3.294,3.294,0,0,0-2.316,3.3v7.648c0,.421-.07.632-.561.562a9.209,9.209,0,0,0-1.965,0c-.351,0-.491-.07-.491-.491v-12.561c0-.492.14-.632.631-.562a15.912,15.912,0,0,0,1.825,0c.351,0,.491.07.421.421a10.384,10.384,0,0,0-.07,1.474Zm57.542,2.666h-.211c-.772.071-1.263,0-1.614-.912-.842-2.1-4.21-2.175-5.614-.21a4.844,4.844,0,0,0-.842,2.245,7.525,7.525,0,0,0,.421,3.93,3.23,3.23,0,0,0,3.579,2.035,3.045,3.045,0,0,0,2.6-2.526c.071-.421.281-.562.7-.491h2.035c.351,0,.421.14.351.421a5.913,5.913,0,0,1-6.6,5.052,6.2,6.2,0,0,1-6.1-6.1,9.27,9.27,0,0,1,.631-4.561,6.215,6.215,0,0,1,6.246-3.719,6.62,6.62,0,0,1,4.491,1.684,5.345,5.345,0,0,1,1.4,2.807q.1.525-.421.421A4.6,4.6,0,0,0,3681.471,2240.714Zm-63.647,2.316v6.1c0,.562-.141.7-.632.632a7.94,7.94,0,0,0-1.824,0c-.422,0-.562-.07-.562-.562v-12.631c0-.351.07-.421.421-.421h2.1c.421,0,.562.07.562.562C3617.824,2238.82,3617.824,2240.925,3617.824,2243.03Zm-1.4-12.07c.421.071,1.053-.21,1.333.071s.071.912.071,1.4c0,.421.21.982-.071,1.263s-.842.07-1.263.07c-.561,0-1.263.211-1.614-.07-.28-.351-.07-1.052-.07-1.544,0-1.193,0-1.193,1.193-1.193Z" fill="#8d8fa0" fill-rule="evenodd"/>
  </g>
</svg>
