<svg xmlns="http://www.w3.org/2000/svg" width="186.072" height="44.391" viewBox="0 0 186.072 44.391">
  <g id="Group_936" data-name="Group 936" transform="translate(-2989.128 -2215.413)">
    <g id="Group_934" data-name="Group 934">
      <path id="Path_8187" data-name="Path 8187" d="M3041.748,2245.026a3.073,3.073,0,0,0,.9.617,2.043,2.043,0,0,0,1.05.186h13.681v-1.853h-13.681a.848.848,0,0,1-.9-.9v-11a1.315,1.315,0,0,1,.062-.34.883.883,0,0,1,.185-.278,1.745,1.745,0,0,1,.278-.216.673.673,0,0,1,.34-.061h13.712v-1.854h-13.681a2.45,2.45,0,0,0-1.05.217,2.621,2.621,0,0,0-1.483,1.482,3.057,3.057,0,0,0-.216,1.05v11a3.022,3.022,0,0,0,.185,1.05,3.092,3.092,0,0,0,.618.9Zm26.252-15.69v16.493h15.071v-1.853h-13.187v-5.467h10.593v-1.884h-10.593v-5.466h13.187v-1.853H3068Zm25.665,16.493v-16.462h13.743a2.842,2.842,0,0,1,1.946.8,2.709,2.709,0,0,1,.8,1.946v4.818a2.466,2.466,0,0,1-.216,1.05,2.626,2.626,0,0,1-1.483,1.483,2.439,2.439,0,0,1-1.05.185h-2.532l5.188,6.115v.031h-2.44l-5.157-6.146-6.949-.031v6.146h-1.853Zm2.748-8h10.995a1.311,1.311,0,0,0,.34-.062.885.885,0,0,0,.278-.185.733.733,0,0,0,.185-.278,1.113,1.113,0,0,0,.062-.34v-4.849a1.319,1.319,0,0,0-.062-.34.885.885,0,0,0-.185-.278.971.971,0,0,0-.278-.216.61.61,0,0,0-.34-.062h-10.995a1.1,1.1,0,0,0-.339.062.672.672,0,0,0-.278.216.737.737,0,0,0-.186.278,1.115,1.115,0,0,0-.061.34v4.818a1.35,1.35,0,0,0,.061.34.559.559,0,0,0,.186.278.777.777,0,0,0,.617.278Zm30.854-6.64v14.639h1.853V2231.19h7.32v-1.854h-16.493v1.854Zm18.963-1.854h1.884v16.493h-1.884Zm13.188,0v16.493h1.884v-7.32h5.312l6.146,7.32h2.409v-.031l-6.918-8.215,6.887-8.216v-.031h-2.378l-6.146,7.32H3161.3v-7.32Z" fill="#38393f"/>
      <path id="Path_8188" data-name="Path 8188" d="M3148.145,2245.86H3146.2v-16.554h1.946Zm-1.884-.062h1.822v-16.431h-1.822Zm28.939.062h-2.44l-6.146-7.289h-5.281v7.32h-1.946v-16.555h1.946v7.32h5.25l6.146-7.32h2.44v.062h0l-6.887,8.215,6.918,8.216Zm-2.409-.062h2.347l-6.918-8.215.031-.031,6.856-8.185h-2.316l-6.146,7.32h-5.374v-7.32h-1.822V2245.8h1.822v-7.32h5.374Zm-43.64.062h-1.915v-14.64h-7.32v-1.914h16.555v1.914h-7.32v14.64Zm-1.853-.062h1.791v-14.639h7.32v-1.792h-16.431v1.792h7.32Zm-17.2.062h-2.5l-5.158-6.115-6.887-.031v6.177h-1.915v-16.555h13.774a2.686,2.686,0,0,1,1.946.834,2.935,2.935,0,0,1,.834,1.946v4.849a2.714,2.714,0,0,1-.834,1.977,3.073,3.073,0,0,1-.9.617,2.589,2.589,0,0,1-1.081.216h-2.44l5.127,6.085Zm-2.471-.062H3110l-5.189-6.146h2.594a2.563,2.563,0,0,0,1.05-.216,2.4,2.4,0,0,0,.865-.587,2.515,2.515,0,0,0,.587-.9,3.044,3.044,0,0,0,.216-1.05v-4.818a2.826,2.826,0,0,0-.8-1.915,2.766,2.766,0,0,0-1.915-.8H3093.7V2245.8h1.791v-6.177l6.98.031h0Zm-24.522.062h-15.133v-16.554H3083.1v1.914h-13.187v5.374h10.593v1.946h-10.593v5.405H3083.1Zm-15.041-.062h14.979v-1.791h-13.187v-5.529h10.593v-1.822h-10.593v-5.528h13.187v-1.792h-14.979Zm-10.624.062h-13.743a2.723,2.723,0,0,1-1.977-.834,3.086,3.086,0,0,1-.618-.9,2.606,2.606,0,0,1-.216-1.081v-11a2.709,2.709,0,0,1,.834-1.976,3.08,3.08,0,0,1,.9-.618,2.6,2.6,0,0,1,1.081-.216h13.743v1.915h-13.743a1.344,1.344,0,0,0-.34.061.875.875,0,0,0-.278.186.44.44,0,0,0-.185.278,1.085,1.085,0,0,0-.062.309v10.994a1.3,1.3,0,0,0,.062.34.545.545,0,0,0,.185.278.726.726,0,0,0,.278.185,1.108,1.108,0,0,0,.34.062h13.743Zm-15.658-.865a2.519,2.519,0,0,0,.9.587,2.444,2.444,0,0,0,1.05.185h13.651v-1.791h-13.681a1.083,1.083,0,0,1-.68-.247.963.963,0,0,1-.278-.68v-11a1.1,1.1,0,0,1,.062-.339,1.012,1.012,0,0,1,.185-.309,1.1,1.1,0,0,1,.309-.216.783.783,0,0,1,.371-.062h13.651v-1.792h-13.62a2.45,2.45,0,0,0-1.05.217,2.8,2.8,0,0,0-.9.586,2.525,2.525,0,0,0-.587.9,3.057,3.057,0,0,0-.216,1.05v11a3.022,3.022,0,0,0,.185,1.05,3.744,3.744,0,0,0,.649.865Zm65.629-7.134h-10.995a.958.958,0,0,1-.679-.278.645.645,0,0,1-.185-.309,1.31,1.31,0,0,1-.062-.34v-4.818a1.114,1.114,0,0,1,.062-.34,1.043,1.043,0,0,1,.185-.309,1.126,1.126,0,0,1,.309-.216.79.79,0,0,1,.37-.061h10.995a1.109,1.109,0,0,1,.34.061.676.676,0,0,1,.278.216.644.644,0,0,1,.185.309,1.319,1.319,0,0,1,.062.34v4.818a1.106,1.106,0,0,1-.062.34,1.037,1.037,0,0,1-.185.309.644.644,0,0,1-.309.185.521.521,0,0,1-.309.093Zm-10.995-6.61a1.3,1.3,0,0,0-.339.062.878.878,0,0,0-.278.185.737.737,0,0,0-.186.278,1.136,1.136,0,0,0-.061.309v4.818a.935.935,0,0,0,.061.309.729.729,0,0,0,.186.278.918.918,0,0,0,.617.247h10.995a.911.911,0,0,0,.309-.062.726.726,0,0,0,.278-.185.449.449,0,0,0,.185-.278,1.094,1.094,0,0,0,.062-.309v-4.818a.916.916,0,0,0-.062-.309.736.736,0,0,0-.185-.278.452.452,0,0,0-.278-.185,1.108,1.108,0,0,0-.34-.062Z" fill="#38393f"/>
    </g>
    <g id="Group_935" data-name="Group 935">
      <path id="Path_8189" data-name="Path 8189" d="M3009.31,2215.413l13.733,4.166a.783.783,0,0,1,.456.456,1.073,1.073,0,0,1,.065.651,1.012,1.012,0,0,1-.39.52.966.966,0,0,1-.586.131l-13.278-3.971-13.214,3.971a.621.621,0,0,1-.585-.131.805.805,0,0,1-.391-.52.77.77,0,0,1,.065-.651,1.023,1.023,0,0,1,.456-.456Z" fill="#38393f"/>
      <path id="Path_8190" data-name="Path 8190" d="M3029.162,2221.987a.8.8,0,0,0-.26-.52,1.318,1.318,0,0,0-.521-.261,1.273,1.273,0,0,0-.521.065.589.589,0,0,0-.39.391l-7.941,15.556h-20.373l-7.941-15.491a1.109,1.109,0,0,0-.391-.39,1.211,1.211,0,0,0-.521-.131.924.924,0,0,0-.781.781,39.392,39.392,0,0,0,.781,15.1c1.953,7.746,6.9,16.793,18.616,22.521l.391.2.39-.2c11.716-5.728,16.728-14.775,18.681-22.521A39.336,39.336,0,0,0,3029.162,2221.987ZM2992,2236.7a38.511,38.511,0,0,1-1.042-11.586l6.9,13.473,9.373,18.16A31.352,31.352,0,0,1,2992,2236.7Zm17.314,20.243-9.243-17.9h18.485Zm17.313-20.243a31.172,31.172,0,0,1-15.3,20.047l9.438-18.16,6.9-13.473A36.842,36.842,0,0,1,3026.623,2236.7Z" fill="#38393f"/>
    </g>
  </g>
</svg>
