<?xml version="1.0" encoding="utf-8"?>
<!-- Generator: Adobe Illustrator 25.4.1, SVG Export Plug-In . SVG Version: 6.00 Build 0)  -->
<svg version="1.1" xmlns="http://www.w3.org/2000/svg" xmlns:xlink="http://www.w3.org/1999/xlink" x="0px" y="0px"
	 viewBox="0 0 154 38" style="enable-background:new 0 0 154 38;" xml:space="preserve">
<style type="text/css">
	.st0{fill:#FFFFFF;}
	.st1{fill:#E4D903;}
	.st2{fill:#959595;}
	.st3{fill:#F5EE51;}
	.st4{fill:#A2A2A2;}
</style>
<g id="Layer_2">
</g>
<g id="Layer_1">
	<g>
		<g>
			<g>
				<g>
					<path class="st0" d="M48.2,13.8c0-0.1,0.1-0.2,0.1-0.3c0.1-0.1,0.2-0.1,0.3-0.1h2.9c0.2,0,0.3,0.1,0.4,0.3l2.3,7.6l2.3-7.6
						c0.1-0.2,0.2-0.3,0.4-0.3h2.9c0.1,0,0.2,0,0.3,0.1c0.1,0.1,0.1,0.2,0.1,0.3c0.2,2,0.4,3.9,0.6,5.8c0.2,1.9,0.4,3.9,0.6,5.9v0
						c0,0.2-0.1,0.3-0.4,0.3h-2.4c-0.3,0-0.4-0.1-0.4-0.4L57.5,19l-1.9,6.5c0,0.1-0.1,0.1-0.1,0.2c-0.1,0.1-0.1,0.1-0.2,0.1h-2.2
						c-0.1,0-0.1,0-0.2-0.1c-0.1-0.1-0.1-0.1-0.1-0.2l-1.9-6.5l-0.7,6.5c0,0.2-0.1,0.4-0.4,0.4h-2.4c-0.2,0-0.4-0.1-0.4-0.4
						L48.2,13.8z"/>
					<path class="st0" d="M63.2,15.9c0-0.2,0.1-0.3,0.2-0.5c0.1-0.1,0.3-0.2,0.5-0.2h1.9c0.1,0,0.1,0,0.2,0c0.1,0,0.2,0.1,0.2,0.1
						c0.1,0.1,0.1,0.1,0.2,0.2c0,0.1,0.1,0.2,0.1,0.3v9.3c0,0.2-0.1,0.4-0.2,0.5c-0.1,0.1-0.3,0.2-0.5,0.2h-1.9
						c-0.4,0-0.6-0.2-0.6-0.6V15.9z"/>
					<path class="st0" d="M68.7,15.4c0.1-0.1,0.1-0.1,0.2-0.1c0.1,0,0.2,0,0.2,0h1.3c0.1,0,0.2,0,0.3,0.1s0.1,0.1,0.2,0.1
						c0.1,0.1,0.1,0.1,0.1,0.2c0,0.1,0.1,0.2,0.1,0.2l0.2,0.7c0.1-0.2,0.2-0.4,0.4-0.5c0.2-0.2,0.4-0.4,0.7-0.5
						c0.3-0.2,0.6-0.3,1-0.4c0.4-0.1,0.8-0.1,1.2-0.1c0.6,0,1.2,0.1,1.7,0.4c0.5,0.2,0.9,0.6,1.3,1c0.3,0.4,0.6,0.9,0.8,1.5
						c0.2,0.6,0.3,1.2,0.3,1.8v5.5c0,0.2,0,0.4-0.1,0.5c-0.1,0.1-0.2,0.2-0.4,0.2H76c-0.2,0-0.4,0-0.5-0.1c-0.1-0.1-0.1-0.2-0.1-0.5
						v-5.5c0-0.2-0.1-0.5-0.2-0.7c-0.1-0.2-0.3-0.4-0.4-0.6c-0.2-0.2-0.4-0.3-0.6-0.4c-0.2-0.1-0.5-0.1-0.7-0.1
						c-0.2,0-0.4,0-0.6,0.1c-0.2,0.1-0.4,0.2-0.6,0.4c-0.2,0.2-0.3,0.3-0.4,0.6c-0.1,0.2-0.2,0.4-0.2,0.7v5.4c0,0.1,0,0.2-0.1,0.3
						c0,0.1-0.1,0.2-0.2,0.2c-0.1,0-0.1,0.1-0.2,0.1c-0.1,0-0.1,0-0.2,0h-1.9c-0.2,0-0.4-0.1-0.5-0.2c-0.1-0.1-0.2-0.3-0.2-0.5v-9.4
						c0-0.1,0-0.2,0.1-0.3C68.6,15.5,68.6,15.4,68.7,15.4L68.7,15.4z"/>
					<path class="st0" d="M89.5,24.6c-0.5,0.5-1,0.8-1.7,1.1c-0.6,0.3-1.3,0.4-2,0.4c-0.8,0-1.5-0.1-2.2-0.4
						c-0.7-0.3-1.3-0.7-1.8-1.2c-0.5-0.5-0.9-1.1-1.2-1.7c-0.3-0.7-0.5-1.4-0.5-2.2c0-0.5,0.1-1,0.2-1.4c0.1-0.5,0.3-0.9,0.5-1.3
						c0.2-0.4,0.5-0.8,0.8-1.1c0.3-0.3,0.7-0.6,1.1-0.9c0.4-0.2,0.8-0.4,1.3-0.6c0.5-0.1,0.9-0.2,1.4-0.2c0.5,0,0.9,0.1,1.3,0.2
						c0.4,0.1,0.8,0.3,1.2,0.5c0.4,0.2,0.7,0.5,1.1,0.8c0.3,0.3,0.6,0.7,0.8,1c0.2,0.4,0.4,0.8,0.5,1.2c0.1,0.4,0.2,0.9,0.2,1.3
						c0,0.3,0,0.5,0,0.7c0,0.2-0.1,0.3-0.1,0.4c-0.1,0.1-0.2,0.2-0.4,0.2s-0.4,0.1-0.8,0.1h-6c0.1,0.4,0.2,0.7,0.3,0.9
						c0.2,0.2,0.4,0.4,0.6,0.6c0.2,0.1,0.5,0.2,0.7,0.3c0.3,0.1,0.5,0.1,0.7,0.1c0.2,0,0.4,0,0.6-0.1c0.2,0,0.4-0.1,0.6-0.2
						c0.2-0.1,0.4-0.2,0.5-0.2c0.2-0.1,0.3-0.2,0.4-0.3c0.1-0.1,0.2-0.1,0.2-0.2c0.1,0,0.1-0.1,0.2-0.1c0.1,0,0.1,0,0.2,0.1
						c0.1,0.1,0.2,0.1,0.3,0.2l0.9,1c0.1,0.1,0.1,0.1,0.1,0.2c0,0.1,0,0.1,0,0.2c0,0.1,0,0.2-0.1,0.3C89.6,24.5,89.6,24.5,89.5,24.6
						z M85.4,17.6c-0.2,0-0.4,0-0.6,0.1c-0.2,0.1-0.4,0.2-0.6,0.3c-0.2,0.1-0.3,0.3-0.5,0.5c-0.1,0.2-0.3,0.4-0.3,0.6h4.3
						c-0.1-0.2-0.2-0.4-0.4-0.6c-0.1-0.2-0.3-0.3-0.5-0.5c-0.2-0.1-0.4-0.2-0.6-0.3C86,17.7,85.7,17.6,85.4,17.6z"/>
					<path class="st0" d="M92.4,15.9c0-0.1,0-0.2,0.1-0.3c0-0.1,0.1-0.1,0.2-0.2c0.1-0.1,0.1-0.1,0.2-0.1c0.1,0,0.2,0,0.2,0h1.3
						c0.1,0,0.3,0,0.3,0.1c0.1,0.1,0.2,0.2,0.2,0.3c0.1,0.1,0.1,0.3,0.2,0.4c0,0.2,0.1,0.3,0.2,0.5c0.2-0.2,0.3-0.4,0.5-0.5
						c0.2-0.2,0.3-0.3,0.5-0.5c0.2-0.1,0.4-0.3,0.6-0.3c0.2-0.1,0.5-0.1,0.8-0.1c0.3,0,0.6,0,0.8,0.1s0.5,0.1,0.7,0.2
						c0.2,0.1,0.4,0.2,0.6,0.3c0.2,0.1,0.4,0.3,0.7,0.5c0.2,0.1,0.4,0.3,0.4,0.5c0,0.1,0,0.3-0.1,0.4l-0.8,1.3
						c-0.2,0.2-0.3,0.3-0.6,0.3c-0.1,0-0.2,0-0.4-0.1c-0.2-0.2-0.5-0.4-0.7-0.5c-0.2-0.1-0.5-0.2-0.9-0.2c-0.2,0-0.4,0-0.6,0.1
						c-0.2,0.1-0.3,0.1-0.4,0.3c-0.1,0.1-0.3,0.2-0.4,0.4c-0.1,0.2-0.2,0.3-0.4,0.5v6.1c0,0.2-0.1,0.4-0.2,0.5
						c-0.1,0.1-0.3,0.2-0.5,0.2h-1.9c-0.4,0-0.7-0.2-0.7-0.6V15.9z"/>
					<path class="st0" d="M101.3,16.1c-0.1-0.2-0.1-0.4-0.1-0.6c0.1-0.2,0.2-0.2,0.5-0.2h2.1c0.1,0,0.3,0,0.4,0.1
						c0.1,0.1,0.2,0.2,0.2,0.3c0.1,0.3,0.2,0.6,0.3,1c0.1,0.4,0.2,0.7,0.4,1.1c0.1,0.4,0.2,0.8,0.4,1.2c0.1,0.4,0.2,0.7,0.3,1.1
						c0.1,0.3,0.2,0.6,0.3,0.8c0.1,0.2,0.1,0.4,0.2,0.5l1.8-5.7c0.1-0.2,0.2-0.3,0.2-0.4s0.2-0.1,0.4-0.1h2.2c0.2,0,0.3,0,0.4,0.1
						c0.1,0,0.1,0.1,0.2,0.2c0,0.1,0,0.1,0,0.2c0,0.1,0,0.2-0.1,0.3l-4,9.6c-0.1,0.1-0.1,0.2-0.2,0.3c-0.1,0.1-0.2,0.1-0.4,0.1h-1
						c-0.2,0-0.4,0-0.5-0.1c-0.1-0.1-0.2-0.2-0.2-0.3L101.3,16.1z"/>
					<path class="st0" d="M121.2,24.6c-0.5,0.5-1,0.8-1.7,1.1c-0.6,0.3-1.3,0.4-2,0.4c-0.8,0-1.5-0.1-2.2-0.4
						c-0.7-0.3-1.3-0.7-1.8-1.2c-0.5-0.5-0.9-1.1-1.2-1.7c-0.3-0.7-0.5-1.4-0.5-2.2c0-0.5,0.1-1,0.2-1.4c0.1-0.5,0.3-0.9,0.5-1.3
						c0.2-0.4,0.5-0.8,0.8-1.1c0.3-0.3,0.7-0.6,1.1-0.9c0.4-0.2,0.8-0.4,1.3-0.6c0.5-0.1,0.9-0.2,1.4-0.2c0.5,0,0.9,0.1,1.3,0.2
						c0.4,0.1,0.8,0.3,1.2,0.5c0.4,0.2,0.7,0.5,1.1,0.8c0.3,0.3,0.6,0.7,0.8,1c0.2,0.4,0.4,0.8,0.5,1.2c0.1,0.4,0.2,0.9,0.2,1.3
						c0,0.3,0,0.5,0,0.7c0,0.2-0.1,0.3-0.1,0.4c-0.1,0.1-0.2,0.2-0.4,0.2s-0.4,0.1-0.8,0.1h-6c0.1,0.4,0.2,0.7,0.3,0.9
						c0.2,0.2,0.4,0.4,0.6,0.6c0.2,0.1,0.5,0.2,0.7,0.3c0.3,0.1,0.5,0.1,0.7,0.1c0.2,0,0.4,0,0.6-0.1c0.2,0,0.4-0.1,0.6-0.2
						c0.2-0.1,0.4-0.2,0.5-0.2c0.2-0.1,0.3-0.2,0.4-0.3c0.1-0.1,0.2-0.1,0.2-0.2c0.1,0,0.1-0.1,0.2-0.1c0.1,0,0.1,0,0.2,0.1
						c0.1,0.1,0.2,0.1,0.3,0.2l0.9,1c0.1,0.1,0.1,0.1,0.1,0.2c0,0.1,0,0.1,0,0.2c0,0.1,0,0.2-0.1,0.3
						C121.3,24.5,121.3,24.5,121.2,24.6z M117.1,17.6c-0.2,0-0.4,0-0.6,0.1c-0.2,0.1-0.4,0.2-0.6,0.3c-0.2,0.1-0.3,0.3-0.5,0.5
						c-0.1,0.2-0.3,0.4-0.3,0.6h4.3c-0.1-0.2-0.2-0.4-0.4-0.6c-0.1-0.2-0.3-0.3-0.5-0.5c-0.2-0.1-0.4-0.2-0.6-0.3
						C117.7,17.7,117.4,17.6,117.1,17.6z"/>
					<path class="st0" d="M124.1,15.9c0-0.1,0-0.2,0.1-0.3c0-0.1,0.1-0.1,0.2-0.2c0.1-0.1,0.1-0.1,0.2-0.1c0.1,0,0.2,0,0.2,0h1.3
						c0.1,0,0.3,0,0.3,0.1c0.1,0.1,0.2,0.2,0.2,0.3c0.1,0.1,0.1,0.3,0.2,0.4c0,0.2,0.1,0.3,0.2,0.5c0.2-0.2,0.3-0.4,0.5-0.5
						c0.2-0.2,0.3-0.3,0.5-0.5c0.2-0.1,0.4-0.3,0.6-0.3c0.2-0.1,0.5-0.1,0.8-0.1c0.3,0,0.6,0,0.8,0.1s0.5,0.1,0.7,0.2
						c0.2,0.1,0.4,0.2,0.6,0.3c0.2,0.1,0.4,0.3,0.7,0.5c0.2,0.1,0.4,0.3,0.4,0.5c0,0.1,0,0.3-0.1,0.4l-0.8,1.3
						c-0.2,0.2-0.3,0.3-0.6,0.3c-0.1,0-0.2,0-0.4-0.1c-0.2-0.2-0.5-0.4-0.7-0.5c-0.2-0.1-0.5-0.2-0.9-0.2c-0.2,0-0.4,0-0.6,0.1
						c-0.2,0.1-0.3,0.1-0.4,0.3c-0.1,0.1-0.3,0.2-0.4,0.4c-0.1,0.2-0.2,0.3-0.4,0.5v6.1c0,0.2-0.1,0.4-0.2,0.5
						c-0.1,0.1-0.3,0.2-0.5,0.2h-1.9c-0.4,0-0.7-0.2-0.7-0.6V15.9z"/>
					<path class="st0" d="M134.9,22.6c0.2,0.2,0.3,0.3,0.5,0.4c0.2,0.1,0.3,0.2,0.5,0.3c0.2,0.1,0.3,0.1,0.4,0.1c0.1,0,0.2,0,0.3,0
						c0.1,0,0.2,0,0.4,0c0.2,0,0.3,0,0.5-0.1c0.2,0,0.3-0.1,0.4-0.2c0.1-0.1,0.2-0.2,0.2-0.4c0-0.2,0-0.3-0.1-0.4
						c-0.1-0.1-0.2-0.2-0.3-0.2c-0.1-0.1-0.3-0.1-0.4-0.2c-0.2-0.1-0.4-0.1-0.6-0.2c-0.7-0.2-1.2-0.4-1.7-0.6
						c-0.4-0.3-0.8-0.5-1-0.8c-0.3-0.3-0.4-0.6-0.5-1c-0.1-0.4-0.2-0.7-0.2-1.1c0-0.5,0.1-0.9,0.3-1.3c0.2-0.4,0.4-0.7,0.8-1
						c0.3-0.3,0.7-0.5,1.2-0.6c0.5-0.1,1-0.2,1.6-0.2c0.4,0,0.7,0,1,0.1s0.6,0.2,0.9,0.3s0.6,0.3,0.8,0.5c0.3,0.2,0.5,0.4,0.8,0.7
						c0.1,0.1,0.1,0.2,0.1,0.3c0,0.1-0.1,0.2-0.2,0.3c-0.2,0.2-0.4,0.4-0.6,0.5c-0.2,0.2-0.4,0.4-0.6,0.6c-0.1,0.1-0.1,0.1-0.2,0.1
						c-0.1,0-0.1,0-0.2,0c-0.1,0-0.1,0-0.2-0.1c-0.1,0-0.1-0.1-0.2-0.1c-0.2-0.2-0.4-0.4-0.7-0.4c-0.3-0.1-0.5-0.1-0.7-0.1
						c-0.3,0-0.5,0-0.7,0.1c-0.2,0.1-0.2,0.2-0.2,0.4c0,0.1,0.1,0.3,0.2,0.3c0.1,0.1,0.2,0.1,0.4,0.2s0.3,0.1,0.5,0.1
						c0.2,0,0.3,0.1,0.4,0.1c0.5,0.2,1,0.3,1.4,0.5c0.4,0.2,0.8,0.4,1.1,0.7c0.3,0.3,0.5,0.6,0.7,1s0.3,0.9,0.3,1.4
						c0,0.6-0.1,1-0.3,1.5c-0.2,0.4-0.5,0.8-0.9,1.1c-0.4,0.3-0.8,0.5-1.4,0.7c-0.5,0.2-1.1,0.2-1.7,0.2c-0.3,0-0.7,0-1.1-0.1
						c-0.4-0.1-0.7-0.2-1-0.3c-0.3-0.1-0.7-0.3-1-0.5c-0.3-0.2-0.6-0.5-0.8-0.8c-0.1-0.1-0.1-0.2-0.1-0.2c0-0.1,0-0.2,0-0.3
						c0-0.1,0-0.2,0.1-0.2c0-0.1,0.1-0.1,0.1-0.2l1.1-1.1c0.1-0.1,0.3-0.2,0.4-0.1C134.6,22.3,134.7,22.4,134.9,22.6z"/>
					<path class="st0" d="M151.9,24.6c-0.5,0.5-1,0.8-1.7,1.1c-0.6,0.3-1.3,0.4-2,0.4c-0.8,0-1.5-0.1-2.2-0.4
						c-0.7-0.3-1.3-0.7-1.8-1.2c-0.5-0.5-0.9-1.1-1.2-1.7s-0.5-1.4-0.5-2.2c0-0.5,0.1-1,0.2-1.4c0.1-0.5,0.3-0.9,0.5-1.3
						c0.2-0.4,0.5-0.8,0.8-1.1c0.3-0.3,0.7-0.6,1.1-0.9c0.4-0.2,0.8-0.4,1.3-0.6c0.5-0.1,0.9-0.2,1.4-0.2c0.5,0,0.9,0.1,1.3,0.2
						c0.4,0.1,0.8,0.3,1.2,0.5c0.4,0.2,0.7,0.5,1.1,0.8c0.3,0.3,0.6,0.7,0.8,1c0.2,0.4,0.4,0.8,0.5,1.2c0.1,0.4,0.2,0.9,0.2,1.3
						c0,0.3,0,0.5,0,0.7c0,0.2-0.1,0.3-0.1,0.4c-0.1,0.1-0.2,0.2-0.4,0.2c-0.2,0-0.4,0.1-0.8,0.1h-6c0.1,0.4,0.2,0.7,0.3,0.9
						c0.2,0.2,0.4,0.4,0.6,0.6c0.2,0.1,0.5,0.2,0.7,0.3c0.3,0.1,0.5,0.1,0.7,0.1c0.2,0,0.4,0,0.6-0.1s0.4-0.1,0.6-0.2
						c0.2-0.1,0.4-0.2,0.5-0.2c0.2-0.1,0.3-0.2,0.4-0.3c0.1-0.1,0.2-0.1,0.2-0.2s0.1-0.1,0.2-0.1c0.1,0,0.1,0,0.2,0.1
						c0.1,0.1,0.2,0.1,0.3,0.2l0.9,1c0.1,0.1,0.1,0.1,0.1,0.2c0,0.1,0,0.1,0,0.2c0,0.1,0,0.2-0.1,0.3
						C152.1,24.5,152,24.5,151.9,24.6z M147.9,17.6c-0.2,0-0.4,0-0.6,0.1c-0.2,0.1-0.4,0.2-0.6,0.3c-0.2,0.1-0.3,0.3-0.5,0.5
						c-0.1,0.2-0.3,0.4-0.3,0.6h4.3c-0.1-0.2-0.2-0.4-0.4-0.6c-0.1-0.2-0.3-0.3-0.5-0.5s-0.4-0.2-0.6-0.3
						C148.5,17.7,148.2,17.6,147.9,17.6z"/>
				</g>
				<g>
					<path class="st1" d="M64.1,13.9h1.4c0.1,0,0.2-0.1,0.3-0.2l0.7-1.2c0.1-0.1,0.1-0.2,0-0.3L65.8,11c-0.1-0.1-0.2-0.2-0.3-0.2
						h-1.4c-0.1,0-0.2,0.1-0.3,0.2l-0.7,1.2c-0.1,0.1-0.1,0.2,0,0.3l0.7,1.2C63.9,13.8,64,13.9,64.1,13.9z"/>
					<path class="st0" d="M65.6,14.5h-1.5c-0.3,0-0.6-0.2-0.8-0.4l-0.8-1.3c-0.2-0.3-0.2-0.6,0-0.9l0.8-1.3c0.2-0.3,0.5-0.4,0.8-0.4
						h1.5c0.3,0,0.6,0.2,0.8,0.4l0.8,1.3c0.2,0.3,0.2,0.6,0,0.9l-0.8,1.3C66.2,14.4,65.9,14.5,65.6,14.5z M64.3,13.2h1l0.5-0.9
						l-0.5-0.9h-1l-0.5,0.9L64.3,13.2z"/>
				</g>
				<path class="st1" d="M64.1,13.9h1.4c0.1,0,0.2-0.1,0.3-0.2l0.7-1.2c0.1-0.1,0.1-0.2,0-0.3L65.8,11c-0.1-0.1-0.2-0.2-0.3-0.2
					h-1.4c-0.1,0-0.2,0.1-0.3,0.2l-0.7,1.2c-0.1,0.1-0.1,0.2,0,0.3l0.7,1.2C63.9,13.8,64,13.9,64.1,13.9z"/>
			</g>
			<g>
				<g>
					<path d="M35,17h-0.4v-4c0-1.5-1.1-2.7-2.6-2.9c-1.8-3.5-5-6.1-8.8-7.3v0L23,2.7c-0.1,0-0.2,0-0.3-0.1c-0.2-0.1-0.4-0.1-0.6-0.1
						c-0.1,0-0.2,0-0.3-0.1c-0.1,0-0.2,0-0.2,0V1.8c0-0.5-0.4-1-1-1h-3.9c-0.5,0-1,0.4-1,1v0.6c-0.1,0-0.2,0-0.2,0
						c-0.1,0-0.2,0-0.3,0.1c-0.2,0-0.4,0.1-0.6,0.1c-0.1,0-0.2,0-0.3,0.1l-0.3,0.1v0C10.5,4,7.3,6.7,5.5,10.1
						C4,10.3,2.9,11.5,2.9,13v4H2.5c-1,0-1.9,0.9-1.9,1.9v0.5c0,0.6,0.5,1.1,1.1,1.1h1.1C3,21.2,3.5,21.7,4,21.7h0.7
						c-0.5,0.5-0.7,1.1-0.8,1.7c-0.1,1.2,0.7,2.1,1.2,2.5C4.6,26.4,3.6,27.7,4,29c0.2,0.6,0.6,1,0.8,1.3c0.6,0.6,1.3,1.1,2.2,1.4
						c-0.2,0.5-0.5,1.4,0.1,2.3c0.7,1.1,2.7,1.7,4.7,0.9c0.2,0.6,0.7,1.6,1.9,2.1c1.7,0.7,3.9,0,5.1-1.6c0.9,1.2,2.4,1.9,3.7,1.9
						c0.5,0,0.9-0.1,1.4-0.3c1.2-0.5,1.7-1.5,1.9-2.1c2,0.8,4,0.2,4.7-0.9c0.5-0.8,0.3-1.8,0.1-2.3c0.9-0.3,1.6-0.8,2.2-1.4
						c0.3-0.3,0.7-0.7,0.8-1.3c0.4-1.3-0.6-2.5-1.1-3.1c0.5-0.4,1.3-1.2,1.2-2.5c0-0.6-0.3-1.3-0.8-1.7h0.7c0.5,0,1-0.5,1.1-1.1h1.1
						c0.6,0,1.1-0.5,1.1-1.1v-0.5C36.9,17.8,36.1,17,35,17z"/>
					<path class="st0" d="M15,37.9c-0.6,0-1.1-0.1-1.6-0.3c-1-0.4-1.6-1.2-2-1.9c-2.2,0.6-4.1-0.2-4.9-1.3c-0.5-0.8-0.5-1.6-0.3-2.3
						c-0.7-0.4-1.3-0.8-1.9-1.4c-0.3-0.3-0.8-0.8-1-1.5c-0.4-1.3,0.2-2.5,0.8-3.2c-0.5-0.6-1-1.4-0.9-2.6c0-0.4,0.1-0.8,0.3-1.1
						c-0.5-0.1-0.9-0.5-1.1-1.1H1.8c-1,0-1.8-0.8-1.8-1.8v-0.5c0-1.3,1-2.4,2.3-2.5V13c0-1.7,1.2-3.1,2.8-3.4
						c1.9-3.4,4.9-5.9,8.5-7.2v0l0.7-0.2c0.1,0,0.1,0,0.2-0.1l0.1,0C14.8,2,15,1.9,15.2,1.9V1.8c0-0.9,0.7-1.6,1.6-1.6h3.9
						c0.9,0,1.6,0.7,1.6,1.6v0.1C22.6,1.9,22.8,2,23,2L23,2c0.1,0,0.1,0,0.2,0.1l0.7,0.2v0c3.6,1.3,6.7,3.9,8.5,7.2
						c1.6,0.3,2.8,1.8,2.8,3.4v3.4c1.3,0.1,2.3,1.2,2.3,2.5v0.5c0,1-0.8,1.8-1.8,1.8h-0.6c-0.2,0.5-0.6,0.9-1.1,1.1
						c0.2,0.4,0.2,0.7,0.3,1.1c0.1,1.1-0.4,2-0.9,2.6c0.6,0.8,1.2,1.9,0.8,3.2c-0.2,0.7-0.7,1.2-1,1.5c-0.5,0.5-1.1,1-1.9,1.4
						c0.2,0.6,0.2,1.5-0.3,2.3c-0.8,1.2-2.7,2-4.9,1.3c-0.3,0.6-0.9,1.4-2,1.9c-0.5,0.2-1.1,0.3-1.6,0.3c-1.3,0-2.7-0.6-3.7-1.6
						C17.7,37.3,16.4,37.9,15,37.9z M18.8,34.3l0.5,0.6c0.8,1,2,1.6,3.2,1.6c0.4,0,0.8-0.1,1.1-0.2c0.9-0.4,1.3-1.2,1.5-1.7l0.2-0.6
						l0.6,0.2c1.7,0.7,3.3,0.2,3.9-0.7c0.4-0.6,0.2-1.3,0-1.7l-0.3-0.6l0.6-0.2c0.8-0.3,1.4-0.7,1.9-1.3c0.2-0.3,0.6-0.6,0.7-1
						c0.3-1-0.6-2-0.9-2.4l-0.5-0.5l0.5-0.4c0.4-0.3,1-1,0.9-1.9c0-0.5-0.2-1-0.6-1.4l-1-1.1h2.2c0.2,0,0.4-0.3,0.5-0.6l0.1-0.5h1.6
						c0.3,0,0.5-0.2,0.5-0.5v-0.5c0-0.7-0.6-1.2-1.2-1.2h-1V13c0-1.1-0.9-2.1-2-2.2l-0.3,0l-0.2-0.3c-1.8-3.3-4.8-5.9-8.4-7
						l-0.3-0.1c0,0-0.1,0-0.1,0l-0.1,0c-0.2,0-0.4-0.1-0.5-0.1l-0.1,0c-0.1,0-0.1,0-0.2,0l-0.1,0c-0.1,0-0.1,0-0.2,0l-0.5-0.1V1.8
						c0-0.2-0.2-0.3-0.3-0.3h-3.9c-0.2,0-0.3,0.2-0.3,0.3v1.2L16,3c-0.1,0-0.1,0-0.2,0l-0.1,0c-0.1,0-0.1,0-0.2,0l-0.1,0
						c-0.2,0-0.4,0.1-0.5,0.1l-0.1,0c0,0-0.1,0-0.1,0l-0.3,0.1c-3.6,1.1-6.6,3.7-8.4,7l-0.2,0.3l-0.3,0c-1.1,0.1-2,1.1-2,2.2v4.6h-1
						c-0.7,0-1.2,0.6-1.2,1.2v0.5c0,0.3,0.2,0.5,0.5,0.5h1.6l0.1,0.5C3.6,20.8,3.8,21,4,21h2.2l-1,1.1c-0.4,0.4-0.6,0.9-0.6,1.4
						c-0.1,0.9,0.6,1.6,0.9,1.9l0.5,0.4l-0.5,0.5c-0.4,0.4-1.2,1.4-0.9,2.4c0.1,0.4,0.4,0.8,0.7,1c0.5,0.5,1.2,1,1.9,1.3l0.6,0.2
						L7.6,32c-0.2,0.4-0.4,1.1,0,1.7c0.5,0.8,2.2,1.3,3.9,0.7l0.6-0.2l0.2,0.6c0.2,0.5,0.6,1.3,1.5,1.7c1.4,0.6,3.3,0,4.4-1.4
						L18.8,34.3z"/>
				</g>
				<g>
					<g>
						<g>
							<g>
								<path class="st2" d="M32,25.9c0.1-0.1,1.4-1,1.3-2.4c-0.1-1.1-0.9-2-2-2.5c0.8-0.8,0.9-2,0.2-2.8c-0.7-0.9-1.9-1.3-3.1-1
									c0.6-0.8,0.8-1.7,0.4-2.4c-0.4-0.6-1-0.9-1.4-1c-1.1-0.4-2.4-0.3-3.4,0.2c-0.3-1-1.2-1.8-2.3-2c-1.1-0.2-2.2,0.1-3,0.8
									c-0.8-0.7-1.9-1-3-0.8c-1.1,0.2-2,1-2.3,2c-1-0.5-2.3-0.6-3.4-0.2c-0.3,0.1-1,0.4-1.4,1c-0.4,0.7-0.2,1.6,0.4,2.4
									c-1.2-0.3-2.4,0.1-3.1,1c-0.7,0.9-0.6,2,0.2,2.8c-1.2,0.4-2,1.4-2,2.5c-0.1,1.5,1.2,2.4,1.3,2.4c-0.2,0.2-1.7,1.6-1.3,3
									c0.2,0.5,0.5,0.9,0.8,1.2c0.8,0.9,1.8,1.3,2.4,1.5c-0.1,0.2-0.7,1.3-0.1,2.3c0.7,1.1,2.7,1.5,4.6,0.7
									c0.1,0.2,0.4,1.6,1.8,2.2c1.5,0.6,3.8,0,5-1.8c1.2,1.8,3.5,2.5,5,1.8c1.4-0.6,1.7-2,1.8-2.2c1.9,0.9,3.9,0.4,4.6-0.7
									c0.6-1,0-2.1-0.1-2.3c0.6-0.2,1.5-0.6,2.4-1.5c0.3-0.3,0.6-0.7,0.8-1.2C33.7,27.4,32.2,26.1,32,25.9z"/>
								<path d="M22.5,37.2c-1.4,0-2.8-0.7-3.7-1.9c-1.3,1.6-3.4,2.3-5.1,1.6c-1.2-0.5-1.7-1.5-1.9-2.1c-2,0.8-4,0.2-4.7-0.9
									c-0.5-0.8-0.3-1.8-0.1-2.3c-0.9-0.3-1.6-0.8-2.2-1.4C4.6,30,4.2,29.6,4,29c-0.4-1.3,0.6-2.5,1.1-3.1
									c-0.5-0.4-1.3-1.2-1.2-2.5c0.1-1.1,0.8-2,1.9-2.5c-0.6-0.9-0.7-2,0-2.9c0.6-0.8,1.7-1.2,2.7-1.2c-0.4-0.7-0.4-1.5-0.1-2.1
									c0.4-0.7,1-1,1.5-1.1c1.1-0.3,2.3-0.3,3.3,0.1c0.4-0.9,1.3-1.7,2.5-1.9c1.1-0.2,2.2,0,3.1,0.7c0.9-0.6,2-0.9,3.1-0.7
									c1.1,0.2,2,0.9,2.5,1.9c1-0.4,2.2-0.5,3.3-0.1c0.5,0.2,1.1,0.5,1.5,1.1c0.4,0.6,0.3,1.4-0.1,2.1c1.1-0.1,2.1,0.4,2.7,1.2
									c0.7,0.9,0.7,2,0,2.9c1.1,0.5,1.8,1.5,1.9,2.5c0.1,1.2-0.7,2.1-1.2,2.5c0.5,0.5,1.5,1.8,1.1,3.1c-0.2,0.6-0.6,1-0.8,1.3
									c-0.6,0.6-1.3,1.1-2.2,1.4c0.2,0.5,0.5,1.4-0.1,2.3c-0.7,1.1-2.7,1.7-4.7,0.9c-0.2,0.6-0.7,1.6-1.9,2.1
									C23.5,37.1,23,37.2,22.5,37.2z M18.8,34.3l0.2,0.4c1.2,1.8,3.3,2.3,4.7,1.7c1.2-0.5,1.5-1.6,1.6-2l0.1-0.3l0.3,0.1
									c1.8,0.8,3.6,0.4,4.3-0.6c0.5-0.8,0-1.8-0.1-2l-0.2-0.3l0.3-0.1c0.9-0.3,1.7-0.8,2.2-1.4c0.3-0.3,0.6-0.6,0.7-1.1
									c0.4-1.3-0.9-2.5-1.2-2.7l-0.3-0.2l0.3-0.2c0.1,0,1.3-0.9,1.2-2.2c-0.1-1-0.8-1.8-1.9-2.2l-0.4-0.2l0.3-0.3
									c0.7-0.7,0.8-1.7,0.2-2.5c-0.6-0.8-1.7-1.1-2.8-0.9l-0.9,0.2l0.6-0.7c0.6-0.7,0.7-1.5,0.4-2.1c-0.3-0.5-0.8-0.7-1.2-0.9
									c-1-0.3-2.2-0.3-3.2,0.2L24,14.4l-0.1-0.3c-0.3-0.9-1.1-1.6-2.1-1.8c-1-0.2-2,0.1-2.8,0.7l-0.2,0.2L18.6,13
									c-0.7-0.6-1.8-0.9-2.8-0.7c-1,0.2-1.9,0.9-2.1,1.8l-0.1,0.3l-0.3-0.1c-1-0.5-2.1-0.5-3.2-0.2c-0.4,0.1-0.9,0.4-1.2,0.9
									c-0.3,0.6-0.2,1.4,0.4,2.1l0.6,0.7L9,17.5c-1.1-0.3-2.2,0.1-2.8,0.9c-0.6,0.8-0.5,1.8,0.2,2.5l0.3,0.3l-0.4,0.2
									c-1.1,0.4-1.8,1.3-1.9,2.2c-0.1,1.3,1.2,2.1,1.2,2.2L6,25.8l-0.3,0.2c-0.3,0.2-1.5,1.5-1.2,2.7c0.1,0.5,0.4,0.8,0.7,1.1
									c0.6,0.6,1.3,1.1,2.2,1.4l0.3,0.1l-0.2,0.3c-0.1,0.2-0.6,1.2-0.1,2c0.6,0.9,2.5,1.4,4.3,0.6l0.3-0.1l0.1,0.3
									c0.1,0.3,0.5,1.5,1.6,2c1.3,0.5,3.5,0,4.7-1.7L18.8,34.3z"/>
							</g>
							<g>
								<circle class="st0" cx="24.6" cy="24.4" r="4.8"/>
								<circle cx="24.6" cy="24.4" r="2.1"/>
							</g>
							<g>
								<circle class="st0" cx="13" cy="24.4" r="4.8"/>
								<circle cx="13" cy="24.4" r="2.1"/>
							</g>
							<g>
								<g>
									<g>
										<g>
											<g>
												<g>
													<path class="st3" d="M33.5,21.3H4c-0.4,0-0.8-0.5-0.8-1.2l0,0h31.1l0,0C34.3,20.8,34,21.3,33.5,21.3z"/>
													<path d="M33.5,21.7H4c-0.7,0-1.2-0.7-1.2-1.6v-0.4h31.9v0.4C34.7,21,34.2,21.7,33.5,21.7z M3.6,20.5
														c0.1,0.3,0.2,0.5,0.4,0.5h29.5c0.1,0,0.3-0.2,0.4-0.5H3.6z"/>
												</g>
												<g>
													<g>
														<path class="st3" d="M6.4,17.8H3.3l0-4.3c0-1.7,1.4-3,3-3h0.1V17.8z"/>
														<path d="M6.8,18.2H2.9V13c0-1.6,1.3-2.9,2.9-2.9h1V18.2z M3.7,17.4H6v-6.6H5.8c-1.2,0-2.1,1-2.1,2.1V17.4z"/>
													</g>
													<g>
														<path class="st3" d="M31.2,17.8h3.1v-4.3c0-1.7-1.4-3-3-3h-0.1V17.8z"/>
														<path d="M34.6,18.2h-3.8v-8h1c1.6,0,2.9,1.3,2.9,2.9V18.2z M31.5,17.4h2.4V13c0-1.2-1-2.1-2.1-2.1h-0.2V17.4z"/>
													</g>
												</g>
												<g>
													<g>
														<path class="st3" d="M33.4,17.4c0-0.1,0-0.2,0-0.3c0-8.1-6.6-14.7-14.7-14.7S4.1,9,4.1,17.1c0,0.1,0,0.2,0,0.3H33.4z"
															/>
														<path d="M33.8,17.8h-30l0-0.5c0-0.1,0-0.1,0-0.2c0-8.3,6.7-15,15-15s15,6.7,15,15c0,0.1,0,0.1,0,0.2L33.8,17.8z
															 M4.5,17.1h28.6c0-7.9-6.4-14.2-14.3-14.2S4.5,9.2,4.5,17.1z"/>
													</g>
												</g>
												<g>
													<path class="st3" d="M14.6,3.1v14.4h8.3V3.1c-1.3-0.4-2.7-0.6-4.2-0.6S15.9,2.7,14.6,3.1z"/>
													<path d="M23.3,17.8h-9v-15l0.3-0.1c2.8-0.8,5.7-0.8,8.5,0l0.3,0.1V17.8z M15,17.1h7.6V3.4c-2.5-0.7-5.1-0.7-7.6,0V17.1
														z"/>
												</g>
												<g>
													<path class="st3" d="M36.2,20.2H1.3C1.2,20.2,1,20,1,19.9v-0.1c0-1.4,1.1-2.5,2.5-2.5l30.6,0c1.4,0,2.5,1.1,2.5,2.5
														v0.1C36.5,20,36.4,20.2,36.2,20.2z"/>
													<path d="M35.8,20.6h-34c-0.6,0-1.1-0.5-1.1-1.1v-0.5c0-1,0.9-1.9,1.9-1.9H35c1,0,1.9,0.9,1.9,1.9v0.5
														C36.9,20.1,36.4,20.6,35.8,20.6z M2.5,17.7c-0.6,0-1.2,0.5-1.2,1.2v0.5c0,0.2,0.2,0.4,0.4,0.4h34
														c0.2,0,0.4-0.2,0.4-0.4v-0.5c0-0.6-0.5-1.2-1.2-1.2H2.5z"/>
												</g>
												<g>
													<path class="st3" d="M18.8,10.5h-0.1c-1.4,0-2.5-1.1-2.5-2.5V1.9c0-0.4,0.3-0.7,0.7-0.7h3.7c0.4,0,0.7,0.3,0.7,0.7V8
														C21.4,9.4,20.2,10.5,18.8,10.5z"/>
													<path d="M19.3,10.9h-1c-1.4,0-2.4-1.1-2.4-2.4V1.8c0-0.5,0.4-1,1-1h3.9c0.5,0,1,0.4,1,1v6.6
														C21.7,9.8,20.6,10.9,19.3,10.9z M16.8,1.5c-0.1,0-0.2,0.1-0.2,0.3v6.6c0,0.9,0.8,1.7,1.7,1.7h1c0.9,0,1.7-0.8,1.7-1.7
														V1.8c0-0.1-0.1-0.3-0.2-0.3H16.8z"/>
												</g>
											</g>
											<g>
												<circle class="st4" cx="18.8" cy="14" r="5.7"/>
												<path d="M18.8,20.1c-3.3,0-6-2.7-6-6s2.7-6,6-6s6,2.7,6,6S22.1,20.1,18.8,20.1z M18.8,8.7c-2.9,0-5.3,2.4-5.3,5.3
													s2.4,5.3,5.3,5.3s5.3-2.4,5.3-5.3S21.7,8.7,18.8,8.7z"/>
											</g>
											<g>
												<circle class="st0" cx="18.8" cy="14" r="3.8"/>
												<path d="M18.8,18.2c-2.3,0-4.2-1.9-4.2-4.2s1.9-4.2,4.2-4.2S23,11.7,23,14S21.1,18.2,18.8,18.2z M18.8,10.6
													c-1.9,0-3.5,1.5-3.5,3.5s1.5,3.5,3.5,3.5s3.5-1.5,3.5-3.5S20.7,10.6,18.8,10.6z"/>
											</g>
										</g>
									</g>
								</g>
							</g>
						</g>
					</g>
				</g>
			</g>
		</g>
	</g>
</g>
</svg>
