<?xml version="1.0" encoding="utf-8"?>
<!-- Generator: Adobe Illustrator 25.4.1, SVG Export Plug-In . SVG Version: 6.00 Build 0)  -->
<svg version="1.1" baseProfile="basic" id="Layer_1"
	 xmlns="http://www.w3.org/2000/svg" xmlns:xlink="http://www.w3.org/1999/xlink" x="0px" y="0px" viewBox="0 0 19 19"
	 xml:space="preserve">
<g id="Layer_2_00000122705504964994348760000008710927108545966248_">
</g>
<g id="Layer_1_00000129916653819324165430000016069321381049475466_">
	<g>
		<path fill="#FFFFFF" d="M13.01,1.39H5.99c-0.72,0-1.39,0.39-1.75,1.01L0.72,8.49c-0.36,0.63-0.36,1.4,0,2.02l3.51,6.09
			c0.36,0.63,1.03,1.01,1.75,1.01h7.03c0.72,0,1.39-0.39,1.75-1.01l3.51-6.09c0.36-0.63,0.36-1.4,0-2.02l-3.5-6.09
			C14.41,1.78,13.74,1.39,13.01,1.39z"/>
		<g>
			<path d="M11.84,14.78L7,8.43v6.35H4.83v-10h2.03l4.68,6.15V4.79h2.17v10h-1.87V14.78z"/>
		</g>
	</g>
</g>
</svg>
