<?xml version="1.0" encoding="utf-8"?>
<!-- Generator: Adobe Illustrator 25.4.1, SVG Export Plug-In . SVG Version: 6.00 Build 0)  -->
<svg version="1.1" baseProfile="basic" id="Layer_1"
	 xmlns="http://www.w3.org/2000/svg" xmlns:xlink="http://www.w3.org/1999/xlink" x="0px" y="0px" viewBox="0 0 19 19"
	 xml:space="preserve">
<g id="Layer_2_00000147912612196013749380000009961083344986361477_">
</g>
<g id="Layer_1_00000060735493019079886610000011338749672604154762_">
	<g>
		<path fill="#FFFFFF" d="M13.01,1.39H5.99c-0.72,0-1.39,0.39-1.75,1.01L0.72,8.49c-0.36,0.63-0.36,1.4,0,2.02l3.51,6.09
			c0.36,0.63,1.03,1.01,1.75,1.01h7.03c0.72,0,1.39-0.39,1.75-1.01l3.51-6.09c0.36-0.63,0.36-1.4,0-2.02l-3.5-6.09
			C14.41,1.78,13.74,1.39,13.01,1.39z"/>
		<g>
			<path d="M13.18,13.15c-0.18,0.39-0.43,0.71-0.75,0.97s-0.71,0.46-1.15,0.6c-0.45,0.14-0.94,0.21-1.48,0.21
				c-0.76,0-1.51-0.13-2.24-0.39s-1.4-0.66-2-1.21l1.3-1.56c0.46,0.37,0.93,0.67,1.41,0.89s1.01,0.33,1.58,0.33
				c0.46,0,0.81-0.08,1.06-0.25s0.38-0.4,0.38-0.69v-0.03c0-0.14-0.03-0.27-0.08-0.38s-0.15-0.21-0.3-0.31
				c-0.15-0.1-0.35-0.19-0.62-0.29s-0.6-0.2-1.02-0.3c-0.51-0.12-0.96-0.26-1.37-0.41S7.14,9.99,6.86,9.77
				c-0.29-0.22-0.51-0.5-0.67-0.84C6.02,8.59,5.94,8.18,5.94,7.68V7.66c0-0.46,0.08-0.87,0.26-1.23c0.16-0.38,0.4-0.69,0.71-0.96
				S7.58,5,8.01,4.86s0.9-0.21,1.41-0.21c0.73,0,1.41,0.11,2.02,0.33c0.61,0.22,1.18,0.53,1.69,0.94l-1.14,1.66
				c-0.45-0.3-0.89-0.54-1.31-0.72C10.25,6.68,9.82,6.6,9.4,6.6S8.64,6.67,8.43,6.83S8.11,7.21,8.11,7.46v0.03
				c0,0.16,0.03,0.3,0.09,0.42c0.06,0.12,0.17,0.23,0.34,0.32C8.7,8.32,8.92,8.41,9.2,8.5s0.64,0.19,1.07,0.3
				c0.51,0.13,0.96,0.28,1.35,0.45s0.73,0.37,1,0.6c0.27,0.23,0.48,0.51,0.62,0.82c0.14,0.31,0.21,0.69,0.21,1.13v0.03
				C13.45,12.32,13.36,12.76,13.18,13.15z"/>
		</g>
	</g>
</g>
</svg>
