<svg xmlns="http://www.w3.org/2000/svg" width="23.51" height="23.51" viewBox="0 0 23.51 23.51">
  <g id="Group_1771" data-name="Group 1771" transform="translate(-3158.494 -2602.295)">
    <g id="Group_1770" data-name="Group 1770">
      <circle id="Ellipse_3080" data-name="Ellipse 3080" cx="11.755" cy="11.755" r="11.755" transform="translate(3158.494 2602.295)" fill="#545454"/>
      <path id="Path_10596" data-name="Path 10596" d="M3176.248,2609.587l-2.146,10.034a.926.926,0,0,1-.426.679.8.8,0,0,1-.741-.111l-3.25-2.4-1.578,1.515a1.8,1.8,0,0,1-.253.221.788.788,0,0,1-.41.094l.253-3.313,6.026-5.459c.085-.063.111-.121.079-.173s-.094-.074-.189-.063a.741.741,0,0,0-.3.11l-7.446,4.7-3.219-1.01q-.537-.157-.5-.473t.663-.568l12.527-4.828a.707.707,0,0,1,.757.11A.984.984,0,0,1,3176.248,2609.587Z"/>
    </g>
  </g>
</svg>
