<svg xmlns="http://www.w3.org/2000/svg" width="23.51" height="23.51" viewBox="0 0 23.51 23.51">
  <g id="Group_1769" data-name="Group 1769" transform="translate(-3117.914 -2602.295)">
    <circle id="Ellipse_3079" data-name="Ellipse 3079" cx="11.755" cy="11.755" r="11.755" transform="translate(3117.914 2602.295)" fill="#545454"/>
    <g id="Group_1768" data-name="Group 1768">
      <g id="Group_1767" data-name="Group 1767">
        <path id="Path_10595" data-name="Path 10595" d="M3127.294,2620.819a8.82,8.82,0,0,0,8.88-8.88c0-.136,0-.27-.008-.4a6.346,6.346,0,0,0,1.557-1.616,6.235,6.235,0,0,1-1.793.491,3.129,3.129,0,0,0,1.373-1.726,6.272,6.272,0,0,1-1.982.757,3.124,3.124,0,0,0-5.319,2.847,8.862,8.862,0,0,1-6.434-3.261,3.123,3.123,0,0,0,.966,4.167,3.1,3.1,0,0,1-1.414-.391v.04a3.122,3.122,0,0,0,2.5,3.06,3.125,3.125,0,0,1-1.41.054,3.126,3.126,0,0,0,2.916,2.168,6.3,6.3,0,0,1-4.621,1.292,8.83,8.83,0,0,0,4.785,1.4"/>
      </g>
    </g>
  </g>
</svg>
